<svg width="79" height="25" viewBox="0 0 79 25" fill="none" xmlns="http://www.w3.org/2000/svg">
<g clip-path="url(#clip0_145_2)">
<path d="M15.6061 12.4129C15.2833 11.2264 14.7843 10.1169 14.0452 9.12568C13.9398 8.98414 13.8902 8.85088 13.8954 8.66906C13.9093 8.18351 13.8406 7.70261 13.7482 7.22636C13.7259 7.11169 13.6939 6.99082 13.634 6.89319C13.4718 6.62976 13.2951 6.37459 13.1175 6.12097C13.0245 5.98821 12.9315 5.85598 12.8385 5.72375C12.6102 5.39884 12.3819 5.07342 12.1536 4.74904C11.9351 4.43911 11.7171 4.12919 11.4986 3.81927C11.494 3.81255 11.4852 3.8079 11.4728 3.7986C11.4707 3.7986 11.4687 3.7986 11.4666 3.7986C11.4666 3.84561 11.4666 3.88073 11.4666 3.91637C11.4692 4.19531 11.4718 4.47424 11.4738 4.75317C11.4764 5.07136 11.48 5.38955 11.4831 5.70773C11.4862 6.01507 11.4888 6.32242 11.4924 6.62976C11.4935 6.70207 11.4743 6.73048 11.4 6.74185C11.1696 6.77749 10.9413 6.82191 10.7114 6.8622C10.5575 6.88906 10.4036 6.9154 10.2496 6.94175C10.3297 6.86117 10.4139 6.79505 10.5048 6.73926C10.5745 6.69639 10.5936 6.653 10.574 6.56881C10.512 6.30124 10.45 6.03367 10.3886 5.7661C10.3168 5.45308 10.245 5.14006 10.1737 4.82703C10.1024 4.51401 10.0306 4.2015 9.95933 3.88848C9.94487 3.82598 9.93092 3.76348 9.91646 3.70149C9.91078 3.6767 9.90251 3.65294 9.89579 3.62866C9.88185 3.64726 9.88237 3.66224 9.88185 3.67722C9.88185 3.75005 9.88082 3.8234 9.8803 3.89623C9.87824 4.21648 9.87617 4.53674 9.87359 4.85648C9.87152 5.17673 9.86945 5.49699 9.86739 5.81724C9.86532 6.18605 9.86274 6.55538 9.86119 6.92418C9.86119 6.98927 9.84259 7.03059 9.78991 7.06933C9.56108 7.23927 9.3338 7.4118 9.10911 7.58742C9.07295 7.61531 9.04144 7.6587 9.02491 7.70158C8.91282 7.99652 8.80538 8.29353 8.69691 8.59003C8.67728 8.64375 8.65765 8.69798 8.64009 8.74654C8.76871 8.85604 8.89061 8.88497 9.03524 8.78889C9.12667 8.72794 9.23462 8.69178 9.33535 8.64478C9.33845 8.65046 9.34155 8.65563 9.34517 8.66131C8.40042 9.41597 7.45566 10.1706 6.50781 10.9274C6.52124 10.9434 6.52744 10.9537 6.53622 10.962C7.08066 11.4661 7.62612 11.9692 8.16952 12.4749C8.21653 12.5183 8.25217 12.5059 8.29969 12.4847C8.90456 12.2161 9.50942 11.947 10.1164 11.6825C10.1639 11.6619 10.2305 11.6572 10.2806 11.6722C10.6809 11.7895 11.0859 11.8644 11.5048 11.8354C12.0777 11.7962 12.5487 11.5643 12.8891 11.0911C13.1138 10.7791 13.2368 10.4248 13.3143 10.0523C13.3205 10.0234 13.3287 9.99553 13.336 9.96712C13.3535 10.1159 13.3613 10.26 13.3525 10.4031C13.3013 11.2239 12.8122 11.8706 12.0348 12.1392C11.4759 12.3324 10.9129 12.3034 10.3519 12.1418C10.3178 12.1319 10.2837 12.1221 10.2496 12.1123C9.84001 13.0953 9.25942 13.9496 8.56106 14.7265C8.58275 14.7565 8.60393 14.7864 8.62562 14.8164C8.63544 14.8298 8.64526 14.8433 8.65507 14.8562C8.83328 15.1 9.01716 15.3391 9.20725 15.5731C9.22946 15.6005 9.25167 15.6279 9.27388 15.6553C9.44538 15.8645 9.621 16.0695 9.80179 16.271C9.91904 16.0953 10.0239 15.9109 10.12 15.7203C10.4867 14.9936 10.7202 14.2193 10.9237 13.4352C10.9485 13.3396 10.9733 13.244 10.9986 13.1485C11.0167 13.1671 11.0193 13.1821 11.0203 13.197C11.073 13.8592 11.0203 14.5137 10.8783 15.162C10.7517 15.7394 10.5611 16.2906 10.3142 16.8195C10.3715 16.8784 10.4289 16.9378 10.4872 16.9962C10.5745 17.0835 10.6629 17.1703 10.7522 17.2565C10.8948 17.3939 11.0394 17.5282 11.1861 17.661C11.3571 17.8154 11.5306 17.9663 11.7068 18.114C11.7786 18.1744 11.8509 18.2338 11.9232 18.2927C11.996 18.2333 12.0689 18.1734 12.1412 18.1129C12.3173 17.9657 12.4904 17.8149 12.6608 17.661C12.8096 17.5272 12.9553 17.3903 13.0994 17.2519C13.1867 17.1672 13.274 17.0819 13.3597 16.9962C13.54 16.8159 13.7161 16.6315 13.8886 16.4435C13.9326 16.396 13.9759 16.3479 14.0193 16.2999C14.15 16.1547 14.2781 16.007 14.4042 15.8577C14.369 15.4585 14.306 15.0623 14.227 14.6676C14.0415 13.7435 13.7724 12.8422 13.4723 11.9501C13.461 11.916 13.4511 11.8819 13.4403 11.8478C14.0777 12.9253 14.5555 14.0617 14.8923 15.2539C14.9961 15.1196 15.0984 14.9843 15.1986 14.8474C15.2063 14.8371 15.2141 14.8262 15.2213 14.8159C15.4068 14.5607 15.586 14.3009 15.7585 14.0359C15.7601 14.0333 15.7616 14.0313 15.7632 14.0287C15.8231 13.9362 15.882 13.8432 15.9403 13.7497C15.835 13.3024 15.7265 12.8556 15.6061 12.4124V12.4129ZM11.0637 8.11584C10.9785 8.42267 10.8907 8.72949 10.8085 9.03735C10.792 9.09985 10.7641 9.11999 10.7011 9.11896C10.5182 9.11535 10.3354 9.11741 10.1375 9.11741C10.449 8.75583 10.7543 8.402 11.0596 8.04766L11.074 8.05592C11.0709 8.07607 11.0694 8.09621 11.0642 8.11584H11.0637Z" fill="black"/>
<path d="M30.5407 9.89204V11.1312C30.5407 12.656 29.8057 13.4866 28.3077 13.4866H27.5995V17.0678H26.1016V7.53662H28.3072C29.8052 7.53662 30.5402 8.36722 30.5402 9.89204H30.5407ZM27.5995 8.89822V12.125H28.3077C28.7845 12.125 29.0427 11.9071 29.0427 11.2263V9.79648C29.0427 9.11568 28.784 8.8977 28.3077 8.8977H27.5995V8.89822Z" fill="black"/>
<path d="M35.9059 17.0678H34.3945L34.1357 15.3384H32.2979L32.0391 17.0678H30.6641L32.1889 7.53662H34.3811L35.9059 17.0678ZM32.4885 14.045H33.9317L33.2235 9.22519H33.1961L32.488 14.045H32.4885Z" fill="black"/>
<path d="M35.6465 7.53662H40.2757V8.89822H38.7101V17.0678H37.2121V8.89822H35.6465V7.53662Z" fill="black"/>
<path d="M44.061 17.0678C43.9794 16.823 43.9246 16.6732 43.9246 15.8968V14.3989C43.9246 13.514 43.625 13.1871 42.9442 13.1871H42.4267V17.0673H40.9287V7.53613H43.1891C44.7413 7.53613 45.4087 8.25774 45.4087 9.72833V10.4773C45.4087 11.4577 45.0956 12.0837 44.4283 12.3973V12.4247C45.1772 12.7377 45.4221 13.4459 45.4221 14.4397V15.9103C45.4221 16.3731 45.4355 16.7135 45.5853 17.0678H44.0605H44.061ZM42.4272 8.89825V11.8255H43.0124C43.5708 11.8255 43.9112 11.5806 43.9112 10.8177V9.87812C43.9112 9.19732 43.6798 8.89773 43.1488 8.89773H42.4272V8.89825Z" fill="black"/>
<path d="M46.2803 9.82396C46.2803 8.29914 47.0835 7.42773 48.5541 7.42773C50.0247 7.42773 50.8279 8.29914 50.8279 9.82396V14.7802C50.8279 16.305 50.0247 17.1764 48.5541 17.1764C47.0835 17.1764 46.2803 16.305 46.2803 14.7802V9.82396ZM47.7782 14.8757C47.7782 15.5565 48.0778 15.8153 48.5546 15.8153C49.0314 15.8153 49.3304 15.5565 49.3304 14.8757V9.72892C49.3304 9.04812 49.0308 8.78933 48.5546 8.78933C48.0783 8.78933 47.7782 9.04812 47.7782 9.72892V14.8757Z" fill="black"/>
<path d="M51.7949 7.53662H53.2929V15.7062H55.7573V17.0678H51.7949V7.53662Z" fill="black"/>
<path d="M60.8493 9.89204V11.1312C60.8493 12.656 60.1143 13.4866 58.6163 13.4866H57.9081V17.0678H56.4102V7.53662H58.6158C60.1137 7.53662 60.8488 8.36722 60.8488 9.89204H60.8493ZM57.9081 8.89822V12.125H58.6163C59.0931 12.125 59.3513 11.9071 59.3513 11.2263V9.79648C59.3513 9.11568 59.0925 8.8977 58.6163 8.8977H57.9081V8.89822Z" fill="black"/>
<path d="M61.4209 9.82396C61.4209 8.29914 62.2241 7.42773 63.6947 7.42773C65.1653 7.42773 65.9685 8.29914 65.9685 9.82396V14.7802C65.9685 16.305 65.1653 17.1764 63.6947 17.1764C62.2241 17.1764 61.4209 16.305 61.4209 14.7802V9.82396ZM62.9183 14.8757C62.9183 15.5565 63.2179 15.8153 63.6947 15.8153C64.1715 15.8153 64.4705 15.5565 64.4705 14.8757V9.72892C64.4705 9.04812 64.171 8.78933 63.6947 8.78933C63.2185 8.78933 62.9183 9.04812 62.9183 9.72892V14.8757Z" fill="black"/>
<path d="M68.9505 7.42773C70.4077 7.42773 71.1562 8.29914 71.1562 9.82396V10.1236H69.7403V9.72892C69.7403 9.04812 69.4681 8.78933 68.9913 8.78933C68.5146 8.78933 68.2424 9.04812 68.2424 9.72892C68.2424 10.4097 68.5419 10.9407 69.5223 11.7987C70.775 12.9015 71.1701 13.6913 71.1701 14.7807C71.1701 16.3055 70.4077 17.1769 68.9371 17.1769C67.4665 17.1769 66.7041 16.3055 66.7041 14.7807V14.1954H68.1199V14.8762C68.1199 15.557 68.4195 15.8019 68.8963 15.8019C69.3731 15.8019 69.6721 15.5565 69.6721 14.8762C69.6721 14.196 69.3725 13.6644 68.3922 12.8065C67.1395 11.7036 66.7444 10.9139 66.7444 9.82448C66.7444 8.29965 67.4934 7.42825 68.95 7.42825L68.9505 7.42773Z" fill="black"/>
<path d="M71.5918 7.53662H76.221V8.89822H74.6554V17.0678H73.1574V8.89822H71.5918V7.53662Z" fill="black"/>
<path d="M22.487 5.63786C22.4617 5.98962 22.4281 6.33881 22.3868 6.68592C22.378 6.75979 22.3687 6.83417 22.3589 6.90803C22.3237 7.1787 22.2835 7.44833 22.2385 7.7159C22.2297 7.76755 22.221 7.81869 22.2122 7.87034C22.1621 8.15754 22.1063 8.44319 22.0448 8.72677C22.0386 8.75569 22.0324 8.7841 22.0262 8.81303C21.9591 9.11727 21.8862 9.41841 21.8067 9.71749C21.8046 9.72576 21.8026 9.73402 21.8 9.74228C21.7178 10.0507 21.6295 10.3565 21.5345 10.6591C21.5319 10.6684 21.5288 10.6772 21.5257 10.6865C21.4327 10.982 21.3341 11.2743 21.2292 11.5646C21.2209 11.5879 21.2127 11.6111 21.2039 11.6339C21.1026 11.9112 20.9962 12.1855 20.8836 12.4577C20.8702 12.4913 20.8563 12.5244 20.8423 12.5579C20.7328 12.8203 20.6187 13.0802 20.4993 13.3374C20.4807 13.3777 20.4621 13.418 20.443 13.4583C20.3247 13.7088 20.2023 13.9572 20.0753 14.2031C20.053 14.247 20.0298 14.2904 20.0071 14.3343C19.8795 14.5766 19.7478 14.8163 19.6119 15.0533C19.5866 15.0973 19.5613 15.1412 19.5355 15.1851C19.3975 15.4216 19.255 15.6556 19.1088 15.887C19.0825 15.9284 19.0566 15.9692 19.0298 16.0105C18.8795 16.244 18.725 16.4749 18.5659 16.7021C18.5411 16.7378 18.5163 16.7734 18.491 16.8091C18.3262 17.042 18.1573 17.2719 17.9843 17.4981C17.9631 17.5255 17.9419 17.5529 17.9208 17.5803C17.7395 17.8148 17.5535 18.0451 17.3634 18.2724C17.349 18.29 17.3345 18.307 17.3195 18.3241C17.1191 18.5617 16.9135 18.7952 16.7033 19.024C16.6986 19.0297 16.6935 19.0353 16.6883 19.0405C16.4729 19.275 16.2523 19.5044 16.0271 19.7291C16.0194 19.7368 16.0121 19.7446 16.0044 19.7518C15.7859 19.9693 15.5633 20.1815 15.336 20.3897C15.3128 20.4114 15.2895 20.4326 15.2663 20.4532C15.0524 20.6475 14.835 20.8376 14.6134 21.0235C14.572 21.0581 14.5307 21.0927 14.4894 21.1268C14.2807 21.2993 14.0689 21.4683 13.854 21.6335C13.7941 21.6795 13.7337 21.7255 13.6733 21.7709C13.3933 21.9817 13.1082 22.1857 12.8179 22.383C12.525 22.5824 12.2264 22.7751 11.9237 22.9605C11.6205 22.7751 11.3225 22.5824 11.0296 22.383C10.7393 22.1857 10.4542 21.9817 10.1742 21.7709C10.1189 21.7291 10.0637 21.6878 10.0084 21.6454C9.78837 21.477 9.57142 21.304 9.35809 21.1273C9.32142 21.0974 9.28525 21.0674 9.24961 21.0369C9.02285 20.8474 8.80023 20.6526 8.58121 20.4538C8.56313 20.4372 8.54505 20.4207 8.52646 20.4037C8.29401 20.1914 8.06622 19.9739 7.84308 19.7518C7.83171 19.7575 7.82035 19.7626 7.80899 19.7683C7.81777 19.7601 7.82603 19.7518 7.83482 19.7435C7.60909 19.5193 7.38904 19.2895 7.17313 19.056C7.16331 19.0457 7.1535 19.0348 7.14369 19.0245C6.9381 18.8008 6.73717 18.5725 6.54088 18.3401C6.52177 18.3179 6.50266 18.2951 6.48406 18.2724C6.29811 18.0508 6.11628 17.8256 5.93911 17.5968C5.9138 17.5637 5.88849 17.5312 5.86318 17.4981C5.69427 17.277 5.52898 17.0529 5.36834 16.8251C5.33941 16.7843 5.31048 16.7429 5.28207 16.7021C5.12711 16.48 4.97628 16.2553 4.82907 16.027C4.79911 15.9805 4.76915 15.9335 4.73919 15.887C4.59611 15.6613 4.45716 15.4335 4.32235 15.2026C4.29342 15.153 4.26449 15.1034 4.23608 15.0539C4.10333 14.8225 3.97471 14.589 3.84971 14.3524C3.82388 14.3028 3.79806 14.2537 3.77223 14.2036C3.64774 13.964 3.5279 13.7212 3.41271 13.4763C3.39102 13.4304 3.36933 13.3839 3.34815 13.3379C3.23141 13.0864 3.11932 12.8322 3.0124 12.576C2.99587 12.5368 2.97934 12.4975 2.96384 12.4582C2.85382 12.1922 2.74948 11.9231 2.65031 11.6519C2.63946 11.623 2.62912 11.5941 2.61879 11.5652C2.516 11.2811 2.4189 10.9944 2.32747 10.7046C2.32282 10.6896 2.31817 10.6746 2.31352 10.6597C2.21848 10.3565 2.12963 10.0512 2.04802 9.7428C2.04079 9.74487 2.03356 9.74693 2.02632 9.749C2.03304 9.74435 2.03924 9.7397 2.04595 9.73557C1.96486 9.43081 1.88996 9.12347 1.82178 8.81355C1.81661 8.79082 1.81144 8.76757 1.80628 8.74485C1.74378 8.45558 1.68644 8.16426 1.63531 7.87086C1.62704 7.82489 1.61929 7.77943 1.61154 7.73346C1.56557 7.46021 1.52425 7.1849 1.48809 6.90855C1.47931 6.84037 1.47053 6.77167 1.46227 6.70348C1.75824 6.52476 2.05939 6.35327 2.36518 6.18901C2.49276 6.12031 2.62138 6.05316 2.75051 5.98756C2.92614 5.8982 3.1028 5.81142 3.28152 5.72722C3.58214 5.58517 3.8869 5.44984 4.19579 5.32277C4.19941 5.31244 4.20303 5.30159 4.20613 5.29126C4.20613 5.30004 4.20715 5.30883 4.20767 5.31761C4.51553 5.19054 4.82752 5.07122 5.14261 4.95913C5.19013 4.94208 5.23765 4.92555 5.28517 4.90851C5.54912 4.81708 5.81566 4.73082 6.08426 4.65024C6.15296 4.62906 6.22218 4.60891 6.2914 4.58929C6.53624 4.51852 6.78262 4.45189 7.03159 4.39042C7.10959 4.37079 7.18759 4.35219 7.26611 4.3336C7.5032 4.27781 7.74235 4.22616 7.98255 4.17864C8.06364 4.16262 8.14525 4.14713 8.22687 4.13163C8.46189 4.08824 8.69847 4.04899 8.93608 4.01334C9.01769 4.00095 9.09982 3.98958 9.18195 3.97874C9.34569 3.95652 9.51047 3.9369 9.67525 3.91882L9.67679 3.68328C9.67679 3.6559 9.67731 3.58513 9.73155 3.5123L9.98103 3.17913L10.0957 3.57893L10.1019 3.5996C10.1081 3.62026 10.1143 3.64144 10.1195 3.66261L10.1665 3.86923C10.3922 3.8496 10.6184 3.83359 10.8462 3.82171C10.9268 3.81758 11.0079 3.81344 11.089 3.81034C11.1458 3.80776 11.2037 3.80673 11.2605 3.80466V3.60373L11.4676 3.59856L11.5353 3.59753L11.5988 3.64092C11.6143 3.65177 11.6433 3.67139 11.6681 3.70704L11.729 3.79381C11.7528 3.79381 11.777 3.79278 11.8008 3.79278C11.8463 3.79278 11.8912 3.79278 11.9367 3.79278C11.9718 3.79278 12.0069 3.79278 12.0425 3.79278C12.2812 3.79381 12.5183 3.7995 12.7549 3.80879C12.836 3.81189 12.917 3.81551 12.9976 3.81964C13.2358 3.83204 13.4728 3.84857 13.7084 3.86871C13.79 3.87594 13.8716 3.88318 13.9527 3.89144C14.1903 3.91468 14.4269 3.94258 14.6619 3.97409C14.744 3.98493 14.8262 3.9963 14.9078 4.0087C15.1454 4.04382 15.382 4.08256 15.617 4.12595C15.6986 4.14093 15.7802 4.15643 15.8613 4.17244C16.1015 4.21944 16.3402 4.27058 16.5772 4.32637C16.6558 4.34445 16.7343 4.36356 16.8123 4.38319C17.0602 4.44414 17.3066 4.51026 17.5509 4.5805C17.6207 4.60065 17.6899 4.62079 17.7596 4.64146C18.0277 4.72152 18.2937 4.80727 18.5566 4.89766C18.6052 4.91471 18.6537 4.93123 18.7018 4.9488C18.694 5.10066 18.6847 5.25201 18.6734 5.40335C18.6599 5.58207 18.6444 5.75925 18.6258 5.93642C18.3361 5.8295 18.0432 5.72929 17.7472 5.63631C17.7307 5.63115 17.7141 5.62598 17.6976 5.62082C17.3892 5.52474 17.0773 5.43589 16.7627 5.3548C16.7405 5.34912 16.7188 5.34343 16.6966 5.33775C16.4078 5.2644 16.116 5.19777 15.8221 5.13785C15.7787 5.12907 15.7353 5.12029 15.6919 5.11151C15.4223 5.0583 15.1506 5.01078 14.8768 4.96946C14.821 4.96068 14.7657 4.95241 14.71 4.94467C14.4512 4.90747 14.1903 4.87545 13.9279 4.84859C13.8654 4.84239 13.8034 4.83619 13.7404 4.83051C13.4873 4.80675 13.2327 4.78815 12.9764 4.77472C12.9103 4.77111 12.8447 4.76801 12.7786 4.76543C12.6541 4.76026 12.5291 4.75664 12.4041 4.75355C12.6056 5.03971 12.8065 5.32587 13.008 5.61255L13.0963 5.73807C13.3447 5.75357 13.5922 5.77371 13.838 5.79902C13.8489 5.80005 13.8597 5.80109 13.8706 5.80264C14.1779 5.83466 14.4827 5.87444 14.7849 5.92144C14.8138 5.92557 14.8427 5.93022 14.8716 5.93487C15.1583 5.98084 15.4429 6.03353 15.725 6.09242C15.7849 6.10481 15.8448 6.11773 15.9042 6.13116C16.1573 6.18694 16.4089 6.24789 16.6583 6.31401C16.7709 6.34397 16.8836 6.37445 16.9951 6.40699C17.1924 6.46329 17.3887 6.52269 17.5835 6.58571C17.7952 6.65389 18.006 6.72621 18.2142 6.80162C18.3097 6.83623 18.4048 6.87187 18.4998 6.90803C18.4843 7.00824 18.4678 7.10845 18.4497 7.20762C18.4115 7.42767 18.3691 7.64617 18.3226 7.86311C18.2798 8.06301 18.2338 8.26188 18.1847 8.45972C18.1563 8.57387 18.1274 8.68751 18.0964 8.80115C18.0292 9.05064 17.9574 9.29754 17.88 9.5429C17.8614 9.6023 17.8423 9.6617 17.8231 9.72111C17.7338 9.99591 17.6377 10.2676 17.5359 10.5362C17.5251 10.5646 17.5142 10.593 17.5034 10.622C17.3929 10.9081 17.2756 11.1912 17.1516 11.4706C17.147 11.4815 17.1418 11.4928 17.1372 11.5037C17.008 11.7929 16.8717 12.0786 16.7281 12.3596C16.7348 12.3653 16.7415 12.3704 16.7482 12.3761C16.7405 12.373 16.7322 12.3694 16.7245 12.3663C16.5783 12.652 16.4254 12.9335 16.2653 13.2103C16.2653 13.2103 16.2653 13.2108 16.2647 13.2114C16.1594 13.3932 16.0509 13.5729 15.9393 13.7511C15.8809 13.8446 15.8221 13.9376 15.7621 14.0301C15.7606 14.0327 15.759 14.0352 15.7575 14.0373C15.585 14.3023 15.4057 14.5621 15.2203 14.8173C15.2125 14.8276 15.2048 14.8385 15.1976 14.8488C15.0974 14.9857 14.9951 15.1215 14.8913 15.2553C14.8081 15.3622 14.7244 15.4686 14.6392 15.574C14.619 15.5988 14.5989 15.6236 14.5788 15.6484C14.5209 15.7192 14.4625 15.7889 14.4036 15.8586C14.2776 16.0079 14.1495 16.1556 14.0188 16.3008C13.9754 16.3488 13.932 16.3969 13.8881 16.4444C13.7156 16.6324 13.5395 16.8163 13.3592 16.9971C13.2735 17.0833 13.1867 17.1686 13.0989 17.2528C12.9548 17.3912 12.8086 17.5281 12.6603 17.6619C12.4899 17.8158 12.3168 17.9661 12.1407 18.1138C12.0684 18.1743 11.9961 18.2342 11.9227 18.2936C11.8499 18.2347 11.7776 18.1753 11.7058 18.1149C11.5291 17.9671 11.3555 17.8163 11.1851 17.6619C11.0384 17.5291 10.8938 17.3948 10.7512 17.2574C10.6624 17.1717 10.574 17.0849 10.4862 16.9971C10.4278 16.9387 10.371 16.8793 10.3132 16.8204C10.1949 16.6985 10.0776 16.5761 9.96296 16.4511C9.9175 16.4015 9.87204 16.3514 9.82659 16.3013C9.81781 16.2915 9.80954 16.2817 9.80076 16.2724C9.62049 16.0709 9.44435 15.8659 9.27286 15.6567C9.25065 15.6293 9.22844 15.6019 9.20622 15.5745C9.01665 15.34 8.83225 15.1009 8.65405 14.8576C8.64423 14.8441 8.63441 14.8307 8.6246 14.8178C8.60291 14.7878 8.58173 14.7579 8.56003 14.7279C8.39939 14.5048 8.24391 14.278 8.0936 14.0471C8.08998 14.0414 8.08637 14.0358 8.08275 14.0306C7.91023 13.7656 7.74442 13.4955 7.58532 13.2212C7.58377 13.2181 7.58171 13.2155 7.58016 13.2124C7.42158 12.9386 7.27023 12.6602 7.1256 12.3777C7.10546 12.3859 7.08532 12.3942 7.06517 12.4025C7.08273 12.3885 7.09978 12.3746 7.11682 12.3606C6.97529 12.0827 6.84047 11.8012 6.71237 11.5156L6.69274 11.4722C6.57032 11.1963 6.4541 10.9169 6.34511 10.6343C6.33271 10.6023 6.32032 10.5703 6.30844 10.5383C6.20771 10.2733 6.11319 10.0052 6.02486 9.73402C6.0042 9.671 5.98405 9.6085 5.96442 9.54497C5.88849 9.30374 5.81721 9.05994 5.75109 8.81458C5.71958 8.69784 5.68911 8.58007 5.66018 8.4623C5.61214 8.26808 5.56669 8.07283 5.52485 7.87654C5.47784 7.65598 5.43445 7.43387 5.39571 7.21021C5.37867 7.11413 5.36266 7.01805 5.34768 6.92146C5.43962 6.88634 5.53156 6.85173 5.62402 6.81764C5.83529 6.74016 6.04862 6.66681 6.26298 6.59708C6.45617 6.53457 6.65039 6.47517 6.84668 6.41887C6.9598 6.38581 7.07395 6.3543 7.18811 6.32434C7.43656 6.25823 7.68656 6.19676 7.93915 6.14097C7.99959 6.12754 8.06054 6.11411 8.12149 6.1012C8.40301 6.0418 8.6871 5.98859 8.97326 5.94262C9.00271 5.93797 9.03215 5.93332 9.0616 5.92867C9.2615 5.89716 9.46243 5.8703 9.6644 5.84551L9.67059 4.8832C9.49135 4.90386 9.31263 4.92659 9.13494 4.95241C9.07916 4.96016 9.02389 4.96843 8.96862 4.97721C8.69485 5.01956 8.42263 5.0676 8.15248 5.12132C8.10961 5.12959 8.06622 5.13837 8.02335 5.14767C7.7284 5.2081 7.43604 5.27525 7.14678 5.34912C7.1256 5.35428 7.10443 5.35996 7.08273 5.36564C6.76816 5.44726 6.45617 5.5361 6.1478 5.6327C6.13023 5.63786 6.11267 5.64406 6.09459 5.64923C5.79965 5.74272 5.50832 5.84293 5.22009 5.94985C5.12402 5.98549 5.02845 6.02165 4.93341 6.05884C4.7206 6.14149 4.50985 6.22775 4.30065 6.31763C3.99331 6.44986 3.69062 6.59036 3.39154 6.73757C3.37656 6.74481 3.3621 6.75204 3.34712 6.75927C3.05889 6.90235 2.77428 7.05266 2.49431 7.20969C2.50619 7.28821 2.51859 7.36724 2.53098 7.44575C2.57282 7.70195 2.6188 7.95661 2.66942 8.20919C2.68492 8.28719 2.70093 8.36467 2.71745 8.44215C2.77066 8.69268 2.82799 8.94217 2.88998 9.18959C2.90754 9.25932 2.9251 9.32905 2.94318 9.39827C3.00878 9.65034 3.07955 9.90035 3.15393 10.1488C3.17201 10.2087 3.19009 10.2681 3.20868 10.328C3.28771 10.5832 3.37191 10.8358 3.46024 11.0868C3.4778 11.1369 3.49588 11.187 3.51396 11.2372C3.60694 11.4944 3.70456 11.749 3.80735 12.0016C3.8244 12.044 3.84144 12.0858 3.85901 12.1277C3.96541 12.3854 4.07698 12.6411 4.19372 12.8937C4.21025 12.9299 4.22679 12.9655 4.24383 13.0016C4.36367 13.2579 4.48815 13.5115 4.61781 13.762C4.63434 13.794 4.65086 13.826 4.66791 13.8581C4.80014 14.1107 4.93702 14.3596 5.07907 14.606C5.09663 14.6365 5.1142 14.6665 5.13176 14.6964C5.27484 14.9423 5.42309 15.1851 5.57598 15.4247C5.59561 15.4552 5.61472 15.4857 5.63487 15.5162C5.78776 15.7538 5.94583 15.9878 6.10802 16.2187C6.13075 16.2512 6.15399 16.2837 6.17724 16.3163C6.33891 16.543 6.50421 16.7667 6.67466 16.9868C6.70256 17.0234 6.73045 17.0591 6.75938 17.0952C6.92725 17.3101 7.09926 17.5214 7.27488 17.7295C7.30949 17.7709 7.34462 17.8117 7.37974 17.8525C7.55278 18.0544 7.72996 18.2528 7.91075 18.448C7.95362 18.4945 7.99649 18.54 8.03936 18.586C8.21757 18.7745 8.39888 18.9599 8.58328 19.1423C8.63442 19.1929 8.68607 19.2435 8.73824 19.2931C8.92213 19.4708 9.1086 19.6449 9.29869 19.8153C9.35757 19.8685 9.41697 19.9212 9.47586 19.9734C9.67008 20.1444 9.8674 20.3117 10.0678 20.4749C10.1293 20.5256 10.1907 20.5752 10.2527 20.6242C10.4743 20.8014 10.6995 20.9739 10.9279 21.1418C10.9749 21.1764 11.0213 21.2105 11.0689 21.2446C11.3488 21.4471 11.634 21.6428 11.9237 21.8314C12.214 21.6428 12.4986 21.4471 12.7786 21.2446C12.8292 21.2084 12.8788 21.1718 12.9289 21.1351C13.1547 20.9693 13.3762 20.7988 13.5947 20.6242C13.6603 20.5715 13.7265 20.5189 13.7915 20.4651C13.9878 20.3045 14.1815 20.1402 14.3716 19.9729C14.4352 19.9171 14.4987 19.8608 14.5612 19.804C14.7466 19.6366 14.9295 19.4661 15.1092 19.2926C15.165 19.2383 15.2208 19.1841 15.2766 19.1294C15.4569 18.9512 15.6346 18.7693 15.8081 18.5849C15.8551 18.5348 15.9021 18.4847 15.9486 18.4341C16.1253 18.2435 16.2983 18.0493 16.4677 17.852C16.5065 17.8065 16.5452 17.761 16.584 17.7156C16.756 17.5121 16.9238 17.3049 17.0886 17.0952C17.1206 17.0544 17.1527 17.0136 17.1842 16.9723C17.3505 16.7569 17.5127 16.5379 17.6702 16.3158C17.6966 16.2781 17.7234 16.2409 17.7498 16.2032C17.9084 15.9769 18.0628 15.7476 18.2126 15.5151C18.2353 15.48 18.2586 15.4444 18.2808 15.4087C18.4306 15.1742 18.5752 14.9361 18.7152 14.6954C18.7359 14.6603 18.7565 14.6251 18.7767 14.5895C18.9151 14.3483 19.0494 14.1039 19.1791 13.8565C19.1987 13.8193 19.2178 13.7821 19.2369 13.745C19.364 13.4996 19.4859 13.2511 19.6031 13.0001C19.6222 12.9588 19.6414 12.918 19.6605 12.8766C19.7741 12.6287 19.8836 12.3787 19.9874 12.1261C20.0071 12.0786 20.0267 12.0316 20.0453 11.9841C20.1455 11.7366 20.2416 11.4872 20.3325 11.2351C20.3526 11.1798 20.3723 11.124 20.3919 11.0688C20.4782 10.8234 20.5603 10.5755 20.6378 10.326C20.6579 10.2609 20.6775 10.1963 20.6972 10.1312C20.77 9.88795 20.8387 9.64311 20.9033 9.39672C20.9229 9.32182 20.942 9.24692 20.9606 9.17203C21.021 8.92977 21.0773 8.68596 21.129 8.44009C21.1466 8.35744 21.1636 8.2748 21.1801 8.19163C21.2297 7.94369 21.2747 7.69421 21.3149 7.44368C21.3284 7.36 21.3418 7.27632 21.3542 7.19213C21.3955 6.91785 21.4312 6.64253 21.4616 6.36463C21.4689 6.3011 21.4756 6.23756 21.4818 6.17403C21.5164 5.83105 21.5427 5.486 21.5608 5.13837C21.5789 4.79022 21.5887 4.43949 21.5897 4.08721C21.5897 4.06293 21.5897 4.03917 21.5897 4.01541C21.5897 3.68224 21.582 3.35114 21.567 3.02159C21.2829 2.89142 20.9957 2.76693 20.7054 2.64813C20.6662 2.63212 20.6269 2.6161 20.5871 2.60009C20.3309 2.49678 20.0727 2.39812 19.8118 2.3036C19.7411 2.27777 19.6703 2.25298 19.5995 2.22818C19.3691 2.14709 19.1367 2.07012 18.9032 1.99677C18.8046 1.96578 18.7059 1.93531 18.6067 1.90535C18.3991 1.84284 18.1904 1.78344 17.9802 1.72662C17.8572 1.69356 17.7338 1.66102 17.6098 1.63003C17.4223 1.58251 17.2338 1.53757 17.0442 1.49521C16.9006 1.46267 16.7565 1.43168 16.6113 1.40224C16.4404 1.36711 16.2684 1.33405 16.0963 1.30306C15.9357 1.27362 15.774 1.24624 15.6118 1.22041C15.4543 1.1951 15.2962 1.17186 15.1377 1.14965C14.9636 1.12537 14.7885 1.10316 14.6134 1.08353C14.4662 1.06649 14.3179 1.05099 14.1697 1.03653C13.9858 1.01896 13.8019 1.00347 13.617 0.990554C13.4759 0.980224 13.3349 0.971442 13.1934 0.964211C13.0043 0.95388 12.8143 0.946132 12.6237 0.940967C12.4863 0.936834 12.3483 0.934252 12.2099 0.932702C12.1195 0.931669 12.0286 0.931152 11.9372 0.931152C11.8359 0.931152 11.7352 0.931669 11.6345 0.933218C11.496 0.934768 11.3581 0.937867 11.2207 0.942C11.0306 0.947682 10.8406 0.955946 10.6515 0.966277C10.5095 0.974025 10.3679 0.982806 10.2269 0.993137C10.0425 1.00657 9.85861 1.02206 9.67576 1.04014C9.52648 1.05461 9.37823 1.07062 9.22998 1.08766C9.05539 1.10781 8.88132 1.13002 8.70776 1.1543C8.54867 1.17651 8.38958 1.20027 8.231 1.2261C8.06984 1.25192 7.9092 1.2793 7.74959 1.30874C7.57603 1.34025 7.4035 1.37383 7.23149 1.40947C7.0879 1.43891 6.94481 1.4699 6.80225 1.50245C6.61164 1.54583 6.42156 1.59129 6.23251 1.63933C6.11009 1.67032 5.98818 1.70235 5.86679 1.7354C5.65553 1.79274 5.4453 1.85266 5.2361 1.91568C5.13848 1.94512 5.04137 1.97508 4.94426 2.00607C4.70871 2.08045 4.47524 2.15845 4.24331 2.24006C4.1741 2.26434 4.10488 2.28913 4.03618 2.31445C3.77378 2.40949 3.51344 2.50918 3.25569 2.61404C3.21798 2.62902 3.18027 2.64451 3.14308 2.66001C2.85072 2.77985 2.56146 2.90588 2.27582 3.0376C2.26135 3.3625 2.2536 3.68896 2.2536 4.01696C2.2536 4.04589 2.2536 4.0743 2.2536 4.10322C2.25515 4.45602 2.26496 4.80675 2.28356 5.1549C1.97054 5.31451 1.66217 5.48187 1.35896 5.65646C1.05007 5.83415 0.746342 6.01958 0.447266 6.21174C0.475675 6.51598 0.510283 6.81867 0.550574 7.1193C0.557289 7.17043 0.564516 7.22209 0.571747 7.27323C0.608938 7.53873 0.65078 7.80268 0.697269 8.06508C0.711732 8.14876 0.727229 8.23244 0.742725 8.31612C0.786114 8.54753 0.833118 8.77739 0.883222 9.00622C0.907499 9.11779 0.932808 9.22884 0.959152 9.33938C1.00667 9.54083 1.05678 9.74125 1.10895 9.94064C1.14459 10.0749 1.18127 10.2082 1.21897 10.342C1.26856 10.5181 1.32073 10.6932 1.37445 10.8678C1.42146 11.0202 1.47002 11.1721 1.52012 11.3229C1.57177 11.4779 1.62446 11.6323 1.67921 11.7857C1.7381 11.9515 1.79905 12.1168 1.86207 12.2806C1.91476 12.419 1.96899 12.5564 2.02426 12.6933C2.09502 12.8684 2.16786 13.0419 2.24276 13.215C2.29699 13.3405 2.35226 13.465 2.40908 13.589C2.4907 13.7692 2.57489 13.9479 2.66115 14.1251C2.71746 14.2413 2.77479 14.357 2.83316 14.4722C2.92459 14.653 3.0186 14.8323 3.11519 15.0105C3.1746 15.121 3.23554 15.231 3.29701 15.34C3.3967 15.5182 3.4995 15.6949 3.60384 15.87C3.66841 15.978 3.734 16.0854 3.80012 16.1923C3.90653 16.3643 4.015 16.5343 4.12606 16.7032C4.19734 16.8116 4.26965 16.9201 4.343 17.0276C4.45303 17.1898 4.56563 17.3504 4.68031 17.51C4.76089 17.6221 4.8425 17.7337 4.92514 17.8442C5.03672 17.994 5.14984 18.1423 5.26503 18.2889C5.35749 18.4072 5.45098 18.524 5.54551 18.6402C5.65553 18.7745 5.76607 18.9078 5.87919 19.0395C5.98663 19.1655 6.09614 19.291 6.20616 19.4145C6.30999 19.5312 6.41536 19.6469 6.52177 19.7616C6.64781 19.8975 6.77539 20.0323 6.90504 20.165C6.99957 20.2621 7.09513 20.3587 7.19172 20.4543C7.34048 20.6015 7.4908 20.7472 7.64318 20.8902C7.72427 20.9667 7.80537 21.0416 7.8875 21.117C8.0626 21.2771 8.2403 21.4342 8.42057 21.5891C8.48307 21.6428 8.54557 21.696 8.60859 21.7487C8.81469 21.9223 9.02441 22.0917 9.23619 22.258C9.27544 22.2885 9.31418 22.319 9.35344 22.349C9.59569 22.5365 9.84157 22.7188 10.0916 22.8965C10.3845 23.1052 10.683 23.3071 10.9857 23.5019C11.292 23.6992 11.6035 23.8893 11.9196 24.0716C12.2357 23.8888 12.5472 23.6987 12.8535 23.5019C13.1567 23.3071 13.4548 23.1052 13.7482 22.8965C14.0049 22.7141 14.2575 22.5266 14.5059 22.334C14.5385 22.3087 14.571 22.2833 14.6035 22.258C14.8226 22.0865 15.038 21.9114 15.2503 21.7327C15.3071 21.6852 15.3634 21.6372 15.4197 21.5886C15.6056 21.4285 15.7895 21.2658 15.9703 21.1C16.0462 21.0307 16.1217 20.9605 16.1966 20.8897C16.3551 20.741 16.5111 20.5901 16.6651 20.4367C16.7555 20.3468 16.8453 20.2559 16.9347 20.1645C17.0695 20.0261 17.2028 19.8856 17.334 19.7435C17.4352 19.6345 17.5349 19.5245 17.6336 19.414C17.7493 19.2843 17.8634 19.1531 17.9755 19.0209C18.083 18.8948 18.1889 18.7678 18.2937 18.6392C18.3934 18.5173 18.4915 18.3938 18.5887 18.2698C18.6992 18.1288 18.8077 17.9868 18.9146 17.8432C19.0019 17.7264 19.0876 17.6087 19.1723 17.4904C19.2824 17.337 19.3903 17.1825 19.4962 17.0265C19.5737 16.9129 19.6501 16.7987 19.725 16.6835C19.8314 16.5208 19.9363 16.3571 20.0386 16.1913C20.1088 16.0782 20.178 15.9645 20.2462 15.8498C20.3469 15.6809 20.4456 15.5105 20.5417 15.339C20.6068 15.2233 20.6708 15.1071 20.7338 14.9903C20.8268 14.8183 20.9172 14.6453 21.0055 14.4712C21.067 14.3498 21.128 14.2279 21.1868 14.105C21.27 13.934 21.3511 13.7615 21.4296 13.5879C21.489 13.4578 21.5474 13.3266 21.6042 13.1943C21.676 13.028 21.7463 12.8606 21.8144 12.6917C21.8728 12.5486 21.9291 12.4045 21.9844 12.2599C22.0448 12.1024 22.1032 11.9438 22.16 11.7842C22.2168 11.6246 22.2721 11.4634 22.3258 11.3022C22.3739 11.1576 22.4203 11.0125 22.4653 10.8663C22.5211 10.6855 22.5753 10.5042 22.6264 10.3213C22.6621 10.1943 22.6972 10.0672 22.7308 9.9396C22.785 9.73402 22.8367 9.52689 22.8852 9.31924C22.91 9.2149 22.9333 9.11004 22.9565 9.00518C23.0082 8.77016 23.0562 8.5341 23.1006 8.29649C23.1151 8.21953 23.129 8.14205 23.1425 8.06456C23.19 7.79596 23.2329 7.52581 23.2711 7.25411C23.2773 7.20866 23.2835 7.16372 23.2897 7.11826C23.331 6.81144 23.3661 6.50306 23.3951 6.19211C23.096 5.99996 22.7917 5.81555 22.4828 5.63838L22.487 5.63786ZM3.21385 3.66468C3.28461 3.6342 3.35538 3.60424 3.42615 3.57532C3.6746 3.47201 3.92616 3.37284 4.17926 3.27831C4.23092 3.25868 4.28257 3.24008 4.33423 3.22149C4.60386 3.12283 4.87607 3.02985 5.15087 2.94152C5.18186 2.93171 5.21338 2.92138 5.24437 2.91156C5.5357 2.81962 5.83012 2.73284 6.12662 2.65278C6.1385 2.64968 6.15038 2.64606 6.16226 2.64348C6.46857 2.56083 6.77746 2.4849 7.08945 2.41569C7.09513 2.41465 7.10081 2.4131 7.10597 2.41207C7.41021 2.3444 7.71704 2.28294 8.02593 2.22818C8.04608 2.22457 8.06623 2.22095 8.08637 2.21785C8.37976 2.1662 8.6747 2.12074 8.97171 2.08097C9.00322 2.07684 9.03525 2.0727 9.06676 2.06857C9.35137 2.0319 9.63754 2.00039 9.92525 1.97456C9.96554 1.97095 10.0053 1.96733 10.0456 1.96423C10.3245 1.94099 10.6045 1.92239 10.8865 1.90896C10.932 1.9069 10.9769 1.90483 11.0224 1.90328C11.2982 1.89192 11.5756 1.88572 11.854 1.8852C11.8824 1.8852 11.9108 1.8852 11.9398 1.8852C11.9583 1.8852 11.9769 1.8852 11.9955 1.8852C12.274 1.88572 12.5508 1.89192 12.8266 1.90225C12.8721 1.9038 12.9176 1.90586 12.963 1.90793C13.2445 1.92084 13.5245 1.93892 13.8029 1.96217C13.8432 1.96526 13.884 1.96888 13.9243 1.9725C14.2115 1.99781 14.4977 2.0288 14.7818 2.06547C14.8138 2.06961 14.8463 2.07374 14.8783 2.07787C15.1748 2.11713 15.4698 2.16207 15.7621 2.21269C15.7828 2.2163 15.804 2.21992 15.8246 2.22353C16.133 2.27777 16.4393 2.33872 16.7431 2.40536C16.7493 2.40691 16.7555 2.40794 16.7617 2.40949C17.0731 2.4787 17.3825 2.55412 17.6888 2.63625C17.6997 2.63935 17.7105 2.64193 17.7219 2.64503C18.0194 2.72509 18.3149 2.81136 18.6072 2.9033C18.6377 2.9126 18.6677 2.92241 18.6982 2.93223C18.9735 3.02004 19.2467 3.11302 19.5174 3.21167C19.5685 3.22975 19.6192 3.24887 19.6703 3.26746C19.9244 3.36199 20.176 3.46065 20.4255 3.56395C20.4957 3.59288 20.566 3.62232 20.6357 3.65228C20.6378 3.77315 20.6388 3.89402 20.6388 4.01541C20.6388 4.24165 20.6352 4.46635 20.6274 4.69053C20.6223 4.84549 20.6155 4.99942 20.6073 5.15335C20.597 5.34137 20.584 5.52784 20.5685 5.71431C20.5407 6.04903 20.505 6.38168 20.4611 6.71175C20.4663 6.71795 20.472 6.72414 20.4776 6.72983C20.472 6.72673 20.4658 6.72414 20.4601 6.72104C20.4157 7.05318 20.3635 7.38325 20.303 7.71022C20.2938 7.75981 20.2845 7.80939 20.2752 7.85898C20.2225 8.13481 20.1636 8.4091 20.0995 8.68131C20.083 8.75105 20.0665 8.82078 20.0489 8.88999C19.9874 9.13897 19.9213 9.38639 19.8511 9.63175C19.8294 9.70871 19.8067 9.78516 19.7834 9.86161C19.7126 10.0971 19.6377 10.3306 19.5592 10.562C19.5329 10.64 19.506 10.717 19.4781 10.7945C19.3975 11.0218 19.3134 11.247 19.225 11.4706C19.1951 11.5466 19.1646 11.6225 19.1336 11.6979C19.0432 11.9195 18.9487 12.1395 18.85 12.357C18.817 12.4309 18.7834 12.5037 18.7488 12.5771C18.6481 12.794 18.5432 13.0084 18.4347 13.2207C18.3986 13.2919 18.3619 13.3627 18.3247 13.4335C18.2136 13.6447 18.099 13.8545 17.9807 14.0611C17.9414 14.1303 17.9017 14.199 17.8614 14.2677C17.7405 14.4738 17.616 14.6778 17.4879 14.8793C17.445 14.9469 17.4022 15.0136 17.3583 15.0807C17.2281 15.2811 17.0938 15.4785 16.9564 15.6737C16.9099 15.7398 16.8634 15.8054 16.8159 15.871C16.6759 16.0652 16.5328 16.2564 16.3861 16.4454C16.336 16.51 16.2854 16.5746 16.2343 16.6386C16.0845 16.8271 15.9311 17.0126 15.7751 17.1954C15.7219 17.2579 15.6681 17.3199 15.6139 17.3814C15.4517 17.5663 15.2869 17.7476 15.1185 17.9263C15.0643 17.9842 15.0095 18.0415 14.9543 18.0983C14.7761 18.2833 14.5948 18.4646 14.4093 18.6423C14.3582 18.6913 14.3071 18.7404 14.2554 18.7884C14.0503 18.9816 13.8411 19.1707 13.6283 19.3551C13.5916 19.3866 13.555 19.4186 13.5178 19.4501C13.2642 19.6666 13.0054 19.8773 12.7409 20.0813C12.7352 20.0855 12.7301 20.0896 12.7244 20.0943C12.463 20.2957 12.1965 20.4915 11.9248 20.68C11.6557 20.4925 11.3912 20.2988 11.1314 20.0989C11.1236 20.0932 11.1159 20.087 11.1086 20.0813C10.8442 19.8773 10.5854 19.6666 10.3318 19.4501C10.2977 19.4212 10.2636 19.3918 10.23 19.3628C10.0141 19.1758 9.8018 18.9847 9.59415 18.7884C9.54611 18.743 9.49807 18.6975 9.45003 18.6516C9.26149 18.4708 9.07657 18.2864 8.89527 18.0983C8.84361 18.0446 8.79196 17.9909 8.74082 17.9367C8.56881 17.7548 8.40042 17.5694 8.23564 17.3809C8.18502 17.323 8.13441 17.2646 8.0843 17.2063C7.92469 17.0198 7.76818 16.8302 7.61529 16.6381C7.56776 16.5782 7.52024 16.5177 7.47324 16.4573C7.32344 16.2646 7.17674 16.0689 7.03418 15.8705C6.98976 15.809 6.94585 15.7476 6.90246 15.6856C6.76196 15.4862 6.62508 15.2842 6.49181 15.0802C6.45101 15.0177 6.41071 14.9552 6.37042 14.8917C6.23974 14.6861 6.11215 14.4779 5.9887 14.2672C5.95099 14.2031 5.9138 14.1386 5.87713 14.074C5.75626 13.8627 5.63849 13.6489 5.52536 13.4324C5.49075 13.3663 5.45615 13.3002 5.42206 13.2336C5.311 13.0166 5.20408 12.7976 5.10129 12.576C5.06926 12.5078 5.03775 12.4391 5.00676 12.3699C4.90604 12.1478 4.80944 11.9231 4.71698 11.6969C4.68805 11.6261 4.65913 11.5548 4.63124 11.4835C4.54084 11.2552 4.45458 11.0254 4.37245 10.7929C4.34662 10.7206 4.32131 10.6478 4.29652 10.5749C4.21594 10.3384 4.13897 10.1002 4.06717 9.86006C4.04548 9.78826 4.0243 9.71697 4.00364 9.64466C3.93132 9.39465 3.86366 9.14258 3.80167 8.88844C3.78566 8.82388 3.77016 8.75879 3.75466 8.69371C3.68906 8.41736 3.62966 8.13843 3.57594 7.85743C3.56716 7.81249 3.5589 7.76807 3.55063 7.72313C3.67357 7.6596 3.79754 7.59761 3.92254 7.53718C4.09455 7.4535 4.26863 7.3724 4.44373 7.29389C4.49487 7.59503 4.55376 7.89411 4.61884 8.19008C4.62349 8.21229 4.62865 8.23451 4.6333 8.2562C4.70458 8.57387 4.7831 8.88844 4.86988 9.19992C4.87453 9.21645 4.87918 9.23349 4.88382 9.25002C4.96647 9.54445 5.05583 9.83578 5.15191 10.124C5.1643 10.1612 5.1767 10.1979 5.1891 10.2345C5.27949 10.5016 5.37609 10.7655 5.47785 11.0274C5.49644 11.075 5.51503 11.1225 5.53363 11.1695C5.63281 11.419 5.73766 11.6659 5.84717 11.9102C5.87041 11.9629 5.89417 12.0151 5.91845 12.0672C6.02744 12.3043 6.14108 12.5393 6.25937 12.7713C6.28675 12.8255 6.31464 12.8792 6.34253 12.9329C6.46185 13.1618 6.5853 13.388 6.7134 13.6112C6.74388 13.6644 6.77487 13.7181 6.80638 13.7708C6.93655 13.9934 7.07137 14.2135 7.21031 14.4304C7.24286 14.4815 7.27592 14.5322 7.30898 14.5828C7.45206 14.8013 7.59927 15.0172 7.75062 15.2295C7.78419 15.276 7.81725 15.3225 7.85083 15.3684C8.00837 15.5859 8.17108 15.7997 8.33792 16.01C8.36892 16.0498 8.40094 16.089 8.43245 16.1283C8.60911 16.3478 8.79093 16.5632 8.97688 16.775C9.00219 16.8039 9.0275 16.8323 9.05333 16.8612C9.25633 17.0895 9.4645 17.3127 9.67834 17.5312C9.68971 17.5431 9.70107 17.5544 9.71295 17.5663C9.94023 17.7972 10.1732 18.0229 10.4113 18.2425C10.4294 18.259 10.447 18.2755 10.465 18.2915C10.6882 18.4956 10.9165 18.6944 11.1494 18.8876C11.2316 18.9563 11.3147 19.024 11.3984 19.0911C11.572 19.2306 11.7481 19.367 11.9263 19.5008C12.1061 19.3665 12.2833 19.2285 12.4578 19.088C12.54 19.0219 12.6221 18.9548 12.7032 18.8876C12.9382 18.6924 13.1686 18.4914 13.3938 18.2853C13.4098 18.2709 13.4253 18.2564 13.4408 18.2419C13.6795 18.0224 13.9124 17.7967 14.1392 17.5658C14.1531 17.5518 14.1671 17.5374 14.181 17.5229C14.3918 17.307 14.5979 17.0864 14.7983 16.8607C14.8267 16.8292 14.8546 16.7977 14.8825 16.7657C15.0659 16.557 15.2446 16.3447 15.4186 16.1277C15.4527 16.0854 15.4873 16.0425 15.5209 15.9991C15.6847 15.792 15.8443 15.5818 15.9998 15.3674C16.0364 15.3178 16.0721 15.2677 16.1077 15.2176C16.2565 15.0084 16.4011 14.7966 16.5421 14.5817C16.5778 14.5275 16.6129 14.4728 16.648 14.418C16.7844 14.2047 16.9171 13.9888 17.0452 13.7697C17.0788 13.7129 17.1119 13.6556 17.1444 13.5983C17.2699 13.3787 17.3913 13.1566 17.5086 12.9314C17.5385 12.8735 17.5685 12.8157 17.5979 12.7573C17.7141 12.529 17.8257 12.2981 17.9326 12.0652C17.9585 12.0089 17.9838 11.9526 18.0091 11.8957C18.1165 11.6555 18.2193 11.4123 18.317 11.1674C18.3376 11.1163 18.3578 11.0646 18.3779 11.013C18.4781 10.7557 18.5726 10.4954 18.662 10.2325C18.6759 10.1912 18.6899 10.1504 18.7033 10.109C18.7978 9.82493 18.8857 9.53773 18.9668 9.24796C18.9724 9.22678 18.9786 9.20612 18.9843 9.18494C19.0706 8.87347 19.1491 8.55889 19.2204 8.24122C19.2245 8.22366 19.2281 8.20558 19.2323 8.18802C19.2984 7.88739 19.3573 7.5847 19.4094 7.27891C19.4265 7.18025 19.4425 7.08159 19.4575 6.98241C19.4926 6.75565 19.5236 6.52786 19.5504 6.29903C19.5892 5.96948 19.6202 5.63734 19.6419 5.30263C19.6419 5.29798 19.6424 5.29333 19.6429 5.28868C19.6646 4.9581 19.678 4.62493 19.6822 4.29021C19.6026 4.2587 19.5226 4.22822 19.4425 4.19775C19.2069 4.10839 18.9693 4.02367 18.7297 3.94309C18.6486 3.91572 18.5675 3.88886 18.4859 3.86251C18.2493 3.78607 18.0112 3.71323 17.771 3.64505C17.6956 3.62336 17.6201 3.60218 17.5442 3.58152C17.3009 3.5154 17.0561 3.4529 16.8092 3.39556C16.7415 3.37955 16.6733 3.36405 16.6057 3.34856C16.3536 3.29225 16.1 3.24008 15.8448 3.19256C15.7854 3.1812 15.7255 3.17087 15.6656 3.16002C15.4052 3.11405 15.1428 3.07273 14.8794 3.03605C14.8267 3.02882 14.774 3.02159 14.7208 3.01487C14.4532 2.97975 14.1846 2.94979 13.914 2.925C13.8664 2.92035 13.8189 2.91621 13.7714 2.9126C13.4992 2.88935 13.2254 2.87076 12.9501 2.85836C12.9062 2.8563 12.8618 2.85423 12.8174 2.85268C12.5426 2.84132 12.2667 2.83563 11.9888 2.83512C11.9723 2.83512 11.9558 2.83512 11.9392 2.83512C11.9129 2.83512 11.886 2.83512 11.8597 2.83512C11.5823 2.83615 11.306 2.84235 11.0312 2.85423C10.9867 2.85578 10.9423 2.85784 10.8984 2.85991C10.6236 2.87334 10.3498 2.89142 10.0776 2.91518C10.0301 2.91931 9.98207 2.92345 9.93454 2.92809C9.66439 2.9534 9.39579 2.98336 9.12874 3.01901C9.07554 3.02572 9.02234 3.03295 8.96965 3.0407C8.70622 3.07737 8.44484 3.11921 8.18451 3.1657C8.12459 3.17655 8.06415 3.1874 8.00424 3.19876C7.74907 3.24628 7.49596 3.29845 7.24441 3.35579C7.17623 3.37129 7.10804 3.38678 7.03986 3.40279C6.79347 3.46116 6.54863 3.52315 6.30585 3.5903C6.22941 3.61096 6.15348 3.63265 6.07806 3.65435C5.83839 3.72305 5.60026 3.79588 5.3642 3.87233C5.28259 3.89867 5.20149 3.92605 5.1204 3.95343C4.88072 4.03452 4.64311 4.11975 4.40705 4.20963C4.32699 4.23959 4.24744 4.27058 4.1679 4.30157C3.90859 4.40333 3.65188 4.51026 3.39722 4.62234C3.33885 4.64817 3.28048 4.674 3.22263 4.70034C3.21488 4.47203 3.21075 4.24217 3.21075 4.01179C3.21075 3.89506 3.21178 3.7778 3.21385 3.66158V3.66468Z" fill="black"/>
</g>
<defs>
<clipPath id="clip0_145_2">
<rect width="78.3219" height="25" fill="white"/>
</clipPath>
</defs>
</svg>
