<svg width="79" height="25" viewBox="0 0 79 25" fill="none" xmlns="http://www.w3.org/2000/svg">
<g clip-path="url(#clip0_145_50)">
<path d="M16.277 12.4132C15.9542 11.2267 15.4552 10.1172 14.7161 9.12592C14.6107 8.98439 14.5611 8.85112 14.5663 8.6693C14.5802 8.18375 14.5115 7.70285 14.419 7.2266C14.3968 7.11193 14.3648 6.99106 14.3049 6.89344C14.1427 6.63 13.966 6.37483 13.7884 6.12121C13.6954 5.98846 13.6024 5.85622 13.5094 5.72399C13.2811 5.39909 13.0528 5.07367 12.8245 4.74928C12.606 4.43936 12.388 4.12943 12.1695 3.81951C12.1649 3.81279 12.1561 3.80815 12.1437 3.79885C12.1416 3.79885 12.1396 3.79885 12.1375 3.79885C12.1375 3.84585 12.1375 3.88098 12.1375 3.91662C12.1401 4.19555 12.1427 4.47448 12.1447 4.75341C12.1473 5.0716 12.1509 5.38979 12.154 5.70798C12.1571 6.01532 12.1597 6.32266 12.1633 6.63C12.1644 6.70232 12.1452 6.73073 12.0709 6.74209C11.8405 6.77773 11.6122 6.82215 11.3823 6.86244C11.2284 6.8893 11.0745 6.91565 10.9205 6.94199C11.0006 6.86141 11.0848 6.79529 11.1757 6.73951C11.2454 6.69663 11.2645 6.65325 11.2449 6.56905C11.1829 6.30148 11.1209 6.03391 11.0595 5.76635C10.9877 5.45332 10.9159 5.1403 10.8446 4.82728C10.7733 4.51425 10.7015 4.20175 10.6302 3.88873C10.6158 3.82622 10.6018 3.76372 10.5874 3.70174C10.5817 3.67694 10.5734 3.65318 10.5667 3.62891C10.5527 3.6475 10.5533 3.66248 10.5527 3.67746C10.5527 3.75029 10.5517 3.82364 10.5512 3.89647C10.5491 4.21673 10.5471 4.53698 10.5445 4.85672C10.5424 5.17698 10.5404 5.49723 10.5383 5.81748C10.5362 6.18629 10.5336 6.55562 10.5321 6.92443C10.5321 6.98951 10.5135 7.03084 10.4608 7.06958C10.232 7.23952 10.0047 7.41204 9.78 7.58767C9.74385 7.61556 9.71234 7.65895 9.69581 7.70182C9.58372 7.99677 9.47628 8.29378 9.36781 8.59027C9.34818 8.64399 9.32855 8.69823 9.31099 8.74678C9.4396 8.85629 9.56151 8.88521 9.70614 8.78914C9.79757 8.72818 9.90552 8.69203 10.0062 8.64502C10.0093 8.6507 10.0124 8.65587 10.0161 8.66155C9.07131 9.41622 8.12656 10.1709 7.17871 10.9276C7.19214 10.9436 7.19834 10.954 7.20712 10.9622C7.75155 11.4664 8.29702 11.9695 8.84042 12.4752C8.88742 12.5186 8.92306 12.5062 8.97059 12.485C9.57545 12.2164 10.1803 11.9473 10.7873 11.6828C10.8348 11.6621 10.9014 11.6575 10.9515 11.6725C11.3518 11.7897 11.7568 11.8646 12.1757 11.8357C12.7486 11.7964 13.2196 11.5645 13.56 11.0914C13.7847 10.7794 13.9077 10.425 13.9852 10.0526C13.9914 10.0237 13.9996 9.99577 14.0068 9.96736C14.0244 10.1161 14.0322 10.2602 14.0234 10.4033C13.9722 11.2241 13.4831 11.8708 12.7057 12.1394C12.1468 12.3326 11.5838 12.3037 11.0228 12.142C10.9887 12.1322 10.9546 12.1224 10.9205 12.1126C10.5109 13.0955 9.93032 13.9499 9.23196 14.7268C9.25365 14.7567 9.27483 14.7867 9.29652 14.8166C9.30634 14.8301 9.31615 14.8435 9.32597 14.8564C9.50417 15.1002 9.68806 15.3394 9.87815 15.5734C9.90036 15.6007 9.92257 15.6281 9.94478 15.6555C10.1163 15.8647 10.2919 16.0698 10.4727 16.2712C10.5899 16.0956 10.6948 15.9112 10.7909 15.7206C11.1576 14.9938 11.3911 14.2195 11.5946 13.4354C11.6194 13.3399 11.6442 13.2443 11.6695 13.1487C11.6876 13.1673 11.6902 13.1823 11.6912 13.1973C11.7439 13.8595 11.6912 14.5139 11.5492 15.1622C11.4226 15.7397 11.232 16.2908 10.9851 16.8198C11.0424 16.8787 11.0998 16.9381 11.1581 16.9964C11.2454 17.0837 11.3338 17.1705 11.4231 17.2568C11.5657 17.3942 11.7103 17.5285 11.857 17.6612C12.028 17.8157 12.2015 17.9665 12.3777 18.1142C12.4495 18.1747 12.5218 18.2341 12.5941 18.2929C12.6669 18.2335 12.7398 18.1736 12.8121 18.1132C12.9882 17.966 13.1613 17.8151 13.3317 17.6612C13.4805 17.5274 13.6262 17.3906 13.7703 17.2521C13.8576 17.1674 13.9449 17.0822 14.0306 16.9964C14.2109 16.8162 14.387 16.6318 14.5595 16.4437C14.6035 16.3962 14.6468 16.3482 14.6902 16.3001C14.8209 16.155 14.949 16.0073 15.0751 15.858C15.0399 15.4587 14.9769 15.0625 14.8979 14.6679C14.7124 13.7438 14.4433 12.8424 14.1432 11.9504C14.1319 11.9163 14.122 11.8822 14.1112 11.8481C14.7486 12.9256 15.2264 14.062 15.5632 15.2541C15.667 15.1198 15.7693 14.9845 15.8695 14.8476C15.8772 14.8373 15.885 14.8265 15.8922 14.8161C16.0777 14.5609 16.2569 14.3011 16.4294 14.0361C16.431 14.0336 16.4325 14.0315 16.4341 14.0289C16.494 13.9365 16.5529 13.8435 16.6112 13.75C16.5059 13.3027 16.3974 12.8559 16.277 12.4127V12.4132ZM11.7346 8.11609C11.6494 8.42291 11.5615 8.72974 11.4794 9.03759C11.4629 9.10009 11.435 9.12024 11.372 9.11921C11.1891 9.11559 11.0063 9.11766 10.8084 9.11766C11.1199 8.75608 11.4252 8.40225 11.7305 8.0479L11.7449 8.05617C11.7418 8.07631 11.7403 8.09646 11.7351 8.11609H11.7346Z" fill="white"/>
<path d="M31.2116 9.89229V11.1315C31.2116 12.6563 30.4766 13.4869 28.9786 13.4869H28.2704V17.0681H26.7725V7.53687H28.9781C30.4761 7.53687 31.2111 8.36746 31.2111 9.89229H31.2116ZM28.2704 8.89846V12.1253H28.9786C29.4554 12.1253 29.7136 11.9073 29.7136 11.2265V9.79673C29.7136 9.11593 29.4549 8.89795 28.9786 8.89795H28.2704V8.89846Z" fill="white"/>
<path d="M36.5768 17.0681H35.0654L34.8066 15.3387H32.9688L32.71 17.0681H31.335L32.8598 7.53687H35.052L36.5768 17.0681ZM33.1594 14.0453H34.6026L33.8944 9.22543H33.867L33.1589 14.0453H33.1594Z" fill="white"/>
<path d="M36.3174 7.53687H40.9466V8.89846H39.381V17.0681H37.883V8.89846H36.3174V7.53687Z" fill="white"/>
<path d="M44.7319 17.0681C44.6503 16.8232 44.5955 16.6734 44.5955 15.8971V14.3991C44.5955 13.5143 44.2959 13.1873 43.6151 13.1873H43.0976V17.0676H41.5996V7.53638H43.86C45.4122 7.53638 46.0796 8.25798 46.0796 9.72857V10.4776C46.0796 11.4579 45.7665 12.084 45.0992 12.3975V12.4249C45.8481 12.7379 46.093 13.4461 46.093 14.4399V15.9105C46.093 16.3733 46.1064 16.7137 46.2562 17.0681H44.7314H44.7319ZM43.0981 8.89849V11.8257H43.6833C44.2417 11.8257 44.5821 11.5809 44.5821 10.818V9.87837C44.5821 9.19757 44.3507 8.89798 43.8197 8.89798H43.0981V8.89849Z" fill="white"/>
<path d="M46.9512 9.82421C46.9512 8.29938 47.7544 7.42798 49.225 7.42798C50.6956 7.42798 51.4988 8.29938 51.4988 9.82421V14.7804C51.4988 16.3052 50.6956 17.1766 49.225 17.1766C47.7544 17.1766 46.9512 16.3052 46.9512 14.7804V9.82421ZM48.4491 14.876C48.4491 15.5568 48.7487 15.8155 49.2255 15.8155C49.7023 15.8155 50.0013 15.5568 50.0013 14.876V9.72916C50.0013 9.04836 49.7017 8.78958 49.2255 8.78958C48.7492 8.78958 48.4491 9.04836 48.4491 9.72916V14.876Z" fill="white"/>
<path d="M52.4658 7.53687H53.9638V15.7065H56.4282V17.0681H52.4658V7.53687Z" fill="white"/>
<path d="M61.5202 9.89229V11.1315C61.5202 12.6563 60.7852 13.4869 59.2872 13.4869H58.579V17.0681H57.0811V7.53687H59.2867C60.7846 7.53687 61.5197 8.36746 61.5197 9.89229H61.5202ZM58.579 8.89846V12.1253H59.2872C59.764 12.1253 60.0222 11.9073 60.0222 11.2265V9.79673C60.0222 9.11593 59.7634 8.89795 59.2872 8.89795H58.579V8.89846Z" fill="white"/>
<path d="M62.0918 9.82421C62.0918 8.29938 62.895 7.42798 64.3656 7.42798C65.8362 7.42798 66.6394 8.29938 66.6394 9.82421V14.7804C66.6394 16.3052 65.8362 17.1766 64.3656 17.1766C62.895 17.1766 62.0918 16.3052 62.0918 14.7804V9.82421ZM63.5892 14.876C63.5892 15.5568 63.8888 15.8155 64.3656 15.8155C64.8424 15.8155 65.1414 15.5568 65.1414 14.876V9.72916C65.1414 9.04836 64.8419 8.78958 64.3656 8.78958C63.8894 8.78958 63.5892 9.04836 63.5892 9.72916V14.876Z" fill="white"/>
<path d="M69.6214 7.42798C71.0786 7.42798 71.8271 8.29938 71.8271 9.82421V10.1238H70.4112V9.72916C70.4112 9.04836 70.139 8.78958 69.6622 8.78958C69.1855 8.78958 68.9133 9.04836 68.9133 9.72916C68.9133 10.41 69.2129 10.941 70.1932 11.7989C71.4459 12.9017 71.841 13.6915 71.841 14.7809C71.841 16.3057 71.0786 17.1771 69.608 17.1771C68.1374 17.1771 67.375 16.3057 67.375 14.7809V14.1957H68.7908V14.8765C68.7908 15.5573 69.0904 15.8021 69.5672 15.8021C70.044 15.8021 70.343 15.5568 70.343 14.8765C70.343 14.1962 70.0434 13.6647 69.0631 12.8067C67.8104 11.7039 67.4153 10.9141 67.4153 9.82472C67.4153 8.2999 68.1643 7.42849 69.6209 7.42849L69.6214 7.42798Z" fill="white"/>
<path d="M72.2627 7.53687H76.8919V8.89846H75.3263V17.0681H73.8283V8.89846H72.2627V7.53687Z" fill="white"/>
<path d="M23.1579 5.63811C23.1326 5.98987 23.099 6.33905 23.0577 6.68616C23.0489 6.76003 23.0396 6.83441 23.0298 6.90828C22.9946 7.17894 22.9544 7.44858 22.9094 7.71614C22.9006 7.7678 22.8919 7.81894 22.8831 7.87059C22.833 8.15779 22.7772 8.44343 22.7157 8.72701C22.7095 8.75594 22.7033 8.78435 22.6971 8.81327C22.63 9.11752 22.5571 9.41866 22.4776 9.71774C22.4755 9.726 22.4735 9.73426 22.4709 9.74253C22.3887 10.0509 22.3004 10.3567 22.2054 10.6594C22.2028 10.6687 22.1997 10.6775 22.1966 10.6868C22.1036 10.9822 22.005 11.2746 21.9001 11.5649C21.8918 11.5881 21.8836 11.6114 21.8748 11.6341C21.7735 11.9115 21.6671 12.1858 21.5545 12.458C21.5411 12.4916 21.5272 12.5246 21.5132 12.5582C21.4037 12.8206 21.2896 13.0804 21.1702 13.3376C21.1516 13.3779 21.133 13.4182 21.1139 13.4585C20.9956 13.709 20.8732 13.9575 20.7462 14.2034C20.7239 14.2473 20.7007 14.2907 20.678 14.3346C20.5504 14.5768 20.4187 14.8165 20.2828 15.0536C20.2575 15.0975 20.2322 15.1414 20.2064 15.1853C20.0685 15.4219 19.9259 15.6559 19.7797 15.8873C19.7534 15.9286 19.7275 15.9694 19.7007 16.0107C19.5504 16.2442 19.3959 16.4751 19.2368 16.7024C19.212 16.738 19.1872 16.7737 19.1619 16.8093C18.9971 17.0423 18.8282 17.2721 18.6552 17.4984C18.634 17.5257 18.6128 17.5531 18.5917 17.5805C18.4104 17.815 18.2244 18.0454 18.0343 18.2727C18.0199 18.2902 18.0054 18.3073 17.9904 18.3243C17.79 18.5619 17.5844 18.7954 17.3742 19.0242C17.3695 19.0299 17.3644 19.0356 17.3592 19.0408C17.1438 19.2753 16.9232 19.5046 16.698 19.7293C16.6903 19.7371 16.6831 19.7448 16.6753 19.752C16.4568 19.9695 16.2342 20.1818 16.0069 20.39C15.9837 20.4117 15.9604 20.4328 15.9372 20.4535C15.7233 20.6477 15.5059 20.8378 15.2843 21.0238C15.2429 21.0584 15.2016 21.093 15.1603 21.1271C14.9516 21.2996 14.7398 21.4685 14.5249 21.6338C14.465 21.6798 14.4046 21.7257 14.3442 21.7712C14.0642 21.9819 13.7791 22.186 13.4888 22.3833C13.1959 22.5827 12.8973 22.7753 12.5946 22.9608C12.2914 22.7753 11.9934 22.5827 11.7005 22.3833C11.4102 22.186 11.1251 21.9819 10.8451 21.7712C10.7899 21.7293 10.7346 21.688 10.6793 21.6457C10.4593 21.4773 10.2423 21.3042 10.029 21.1276C9.99231 21.0976 9.95616 21.0677 9.92052 21.0372C9.69375 20.8476 9.47113 20.6529 9.25211 20.454C9.23403 20.4375 9.21596 20.421 9.19736 20.4039C8.96492 20.1916 8.73712 19.9741 8.51398 19.752C8.50261 19.7577 8.49125 19.7629 8.47989 19.7686C8.48867 19.7603 8.49693 19.752 8.50571 19.7438C8.27998 19.5196 8.05994 19.2897 7.84403 19.0563C7.83421 19.0459 7.8244 19.0351 7.81458 19.0247C7.609 18.8011 7.40807 18.5728 7.21178 18.3403C7.19267 18.3181 7.17356 18.2954 7.15496 18.2727C6.96901 18.0511 6.78719 17.8259 6.61001 17.597C6.5847 17.564 6.55939 17.5314 6.53408 17.4984C6.36517 17.2773 6.19988 17.0531 6.03924 16.8253C6.01031 16.7845 5.98138 16.7432 5.95297 16.7024C5.79801 16.4803 5.64718 16.2556 5.49997 16.0273C5.47001 15.9808 5.44005 15.9338 5.41009 15.8873C5.26701 15.6616 5.12806 15.4338 4.99324 15.2029C4.96432 15.1533 4.93539 15.1037 4.90698 15.0541C4.77423 14.8227 4.64561 14.5892 4.52061 14.3526C4.49478 14.3031 4.46896 14.254 4.44313 14.2039C4.31864 13.9642 4.19881 13.7214 4.08362 13.4766C4.06192 13.4306 4.04023 13.3841 4.01905 13.3382C3.90231 13.0866 3.79022 12.8325 3.6833 12.5763C3.66677 12.537 3.65024 12.4978 3.63474 12.4585C3.52472 12.1925 3.42038 11.9234 3.32121 11.6522C3.31036 11.6232 3.30003 11.5943 3.2897 11.5654C3.1869 11.2813 3.0898 10.9946 2.99837 10.7048C2.99372 10.6899 2.98907 10.6749 2.98442 10.6599C2.88938 10.3567 2.80053 10.0514 2.71892 9.74305C2.71169 9.74511 2.70446 9.74718 2.69723 9.74924C2.70394 9.7446 2.71014 9.73995 2.71685 9.73581C2.63576 9.43106 2.56086 9.12371 2.49268 8.81379C2.48751 8.79106 2.48235 8.76782 2.47718 8.74509C2.41468 8.45583 2.35734 8.1645 2.30621 7.87111C2.29794 7.82513 2.29019 7.77968 2.28244 7.73371C2.23647 7.46046 2.19515 7.18514 2.15899 6.90879C2.15021 6.84061 2.14143 6.77191 2.13316 6.70373C2.42914 6.525 2.73028 6.35351 3.03608 6.18925C3.16366 6.12055 3.29228 6.0534 3.42141 5.9878C3.59704 5.89844 3.77369 5.81166 3.95242 5.72747C4.25304 5.58542 4.5578 5.45009 4.86669 5.32302C4.87031 5.31269 4.87392 5.30184 4.87702 5.29151C4.87702 5.30029 4.87806 5.30907 4.87857 5.31785C5.18643 5.19078 5.49842 5.07146 5.81351 4.95937C5.86103 4.94233 5.90855 4.9258 5.95607 4.90875C6.22003 4.81732 6.48656 4.73106 6.75516 4.65048C6.82386 4.6293 6.89308 4.60916 6.96229 4.58953C7.20713 4.51876 7.45352 4.45213 7.70249 4.39066C7.78049 4.37103 7.85849 4.35244 7.937 4.33384C8.17409 4.27806 8.41325 4.2264 8.65344 4.17888C8.73454 4.16287 8.81615 4.14737 8.89777 4.13188C9.13279 4.08849 9.36937 4.04923 9.60698 4.01359C9.68859 4.00119 9.77072 3.98983 9.85285 3.97898C10.0166 3.95677 10.1814 3.93714 10.3461 3.91906L10.3477 3.68352C10.3477 3.65614 10.3482 3.58538 10.4024 3.51254L10.6519 3.17938L10.7666 3.57918L10.7728 3.59984C10.779 3.6205 10.7852 3.64168 10.7904 3.66286L10.8374 3.86947C11.0631 3.84985 11.2893 3.83383 11.5171 3.82195C11.5977 3.81782 11.6788 3.81369 11.7599 3.81059C11.8167 3.80801 11.8746 3.80697 11.9314 3.80491V3.60397L12.1385 3.59881L12.2062 3.59777L12.2697 3.64116C12.2852 3.65201 12.3142 3.67164 12.339 3.70728L12.3999 3.79406C12.4237 3.79406 12.4479 3.79303 12.4717 3.79303C12.5172 3.79303 12.5621 3.79303 12.6076 3.79303C12.6427 3.79303 12.6778 3.79303 12.7134 3.79303C12.9521 3.79406 13.1892 3.79974 13.4258 3.80904C13.5068 3.81214 13.5879 3.81575 13.6685 3.81989C13.9067 3.83228 14.1437 3.84881 14.3793 3.86896C14.4609 3.87619 14.5425 3.88342 14.6236 3.89168C14.8612 3.91493 15.0978 3.94282 15.3328 3.97433C15.4149 3.98518 15.4971 3.99654 15.5787 4.00894C15.8163 4.04406 16.0529 4.0828 16.2879 4.12619C16.3695 4.14117 16.4511 4.15667 16.5322 4.17268C16.7724 4.21969 17.0111 4.27083 17.2481 4.32661C17.3267 4.34469 17.4052 4.3638 17.4832 4.38343C17.7311 4.44438 17.9775 4.5105 18.2218 4.58075C18.2916 4.60089 18.3608 4.62104 18.4305 4.6417C18.6986 4.72176 18.9646 4.80751 19.2275 4.8979C19.2761 4.91495 19.3246 4.93148 19.3727 4.94904C19.3649 5.1009 19.3556 5.25225 19.3443 5.4036C19.3308 5.58232 19.3153 5.75949 19.2967 5.93667C19.007 5.82974 18.7141 5.72953 18.4181 5.63656C18.4016 5.63139 18.385 5.62622 18.3685 5.62106C18.0601 5.52498 17.7482 5.43614 17.4336 5.35504C17.4114 5.34936 17.3897 5.34368 17.3675 5.338C17.0787 5.26465 16.7869 5.19801 16.493 5.1381C16.4496 5.12931 16.4062 5.12053 16.3628 5.11175C16.0932 5.05855 15.8215 5.01103 15.5477 4.9697C15.4919 4.96092 15.4366 4.95266 15.3809 4.94491C15.1221 4.90772 14.8612 4.87569 14.5988 4.84883C14.5363 4.84263 14.4743 4.83644 14.4113 4.83075C14.1582 4.80699 13.9036 4.7884 13.6473 4.77497C13.5812 4.77135 13.5156 4.76825 13.4495 4.76567C13.325 4.7605 13.2 4.75689 13.075 4.75379C13.2765 5.03995 13.4774 5.32612 13.6789 5.6128L13.7672 5.73831C14.0156 5.75381 14.2631 5.77396 14.5089 5.79927C14.5198 5.8003 14.5306 5.80133 14.5415 5.80288C14.8488 5.83491 15.1536 5.87468 15.4558 5.92169C15.4847 5.92582 15.5136 5.93047 15.5425 5.93512C15.8292 5.98109 16.1138 6.03377 16.3959 6.09266C16.4558 6.10506 16.5157 6.11797 16.5751 6.1314C16.8282 6.18719 17.0798 6.24814 17.3292 6.31426C17.4418 6.34421 17.5545 6.37469 17.666 6.40723C17.8633 6.46354 18.0596 6.52294 18.2544 6.58596C18.4661 6.65414 18.6769 6.72645 18.8851 6.80187C18.9806 6.83648 19.0757 6.87212 19.1707 6.90828C19.1552 7.00849 19.1387 7.10869 19.1206 7.20787C19.0824 7.42791 19.04 7.64641 18.9935 7.86336C18.9507 8.06326 18.9047 8.26213 18.8556 8.45996C18.8272 8.57412 18.7983 8.68775 18.7673 8.80139C18.7001 9.05088 18.6283 9.29779 18.5509 9.54314C18.5323 9.60255 18.5132 9.66195 18.494 9.72135C18.4047 9.99615 18.3086 10.2678 18.2068 10.5364C18.196 10.5649 18.1851 10.5933 18.1743 10.6222C18.0638 10.9084 17.9465 11.1914 17.8225 11.4709C17.8179 11.4817 17.8127 11.4931 17.8081 11.5039C17.6789 11.7932 17.5426 12.0788 17.399 12.3598C17.4057 12.3655 17.4124 12.3707 17.4191 12.3764C17.4114 12.3733 17.4031 12.3696 17.3954 12.3666C17.2492 12.6522 17.0963 12.9337 16.9362 13.2106C16.9362 13.2106 16.9362 13.2111 16.9356 13.2116C16.8303 13.3934 16.7218 13.5732 16.6102 13.7514C16.5518 13.8449 16.493 13.9379 16.433 14.0303C16.4315 14.0329 16.4299 14.0355 16.4284 14.0376C16.2559 14.3025 16.0766 14.5624 15.8912 14.8175C15.8834 14.8279 15.8757 14.8387 15.8685 14.849C15.7683 14.9859 15.666 15.1218 15.5622 15.2556C15.479 15.3625 15.3953 15.4689 15.3101 15.5743C15.2899 15.5991 15.2698 15.6238 15.2497 15.6486C15.1918 15.7194 15.1334 15.7891 15.0745 15.8589C14.9485 16.0082 14.8204 16.1559 14.6897 16.301C14.6463 16.3491 14.6029 16.3971 14.559 16.4446C14.3865 16.6326 14.2104 16.8165 14.0301 16.9973C13.9444 17.0836 13.8576 17.1688 13.7698 17.253C13.6257 17.3914 13.4795 17.5283 13.3312 17.6621C13.1608 17.816 12.9877 17.9664 12.8116 18.1141C12.7393 18.1745 12.667 18.2344 12.5936 18.2938C12.5208 18.235 12.4485 18.1756 12.3767 18.1151C12.2 17.9674 12.0264 17.8166 11.856 17.6621C11.7093 17.5294 11.5647 17.3951 11.4221 17.2577C11.3333 17.1719 11.2449 17.0851 11.1571 16.9973C11.0987 16.939 11.0419 16.8796 10.9841 16.8207C10.8658 16.6988 10.7485 16.5763 10.6339 16.4513C10.5884 16.4018 10.5429 16.3517 10.4975 16.3015C10.4887 16.2917 10.4804 16.2819 10.4717 16.2726C10.2914 16.0712 10.1153 15.8661 9.94376 15.6569C9.92155 15.6295 9.89934 15.6022 9.87713 15.5748C9.68756 15.3403 9.50315 15.1011 9.32494 14.8578C9.31513 14.8444 9.30532 14.831 9.2955 14.818C9.27381 14.7881 9.25263 14.7581 9.23093 14.7282C9.07029 14.505 8.91481 14.2783 8.7645 14.0474C8.76088 14.0417 8.75727 14.036 8.75365 14.0308C8.58113 13.7659 8.41532 13.4957 8.25622 13.2214C8.25468 13.2183 8.25261 13.2157 8.25106 13.2126C8.09248 12.9389 7.94114 12.6605 7.7965 12.3779C7.77636 12.3862 7.75621 12.3944 7.73607 12.4027C7.75363 12.3888 7.77068 12.3748 7.78772 12.3609C7.64619 12.083 7.51137 11.8015 7.38327 11.5158L7.36364 11.4724C7.24122 11.1966 7.125 10.9171 7.01601 10.6346C7.00362 10.6026 6.99122 10.5705 6.97934 10.5385C6.87861 10.2735 6.78409 10.0054 6.69576 9.73426C6.6751 9.67125 6.65495 9.60874 6.63532 9.54521C6.55939 9.30399 6.48811 9.06018 6.42199 8.81482C6.39048 8.69809 6.36001 8.58031 6.33108 8.46254C6.28304 8.26832 6.23759 8.07307 6.19575 7.87679C6.14874 7.65623 6.10535 7.43411 6.06661 7.21045C6.04957 7.11438 6.03355 7.0183 6.01857 6.92171C6.11052 6.88658 6.20246 6.85197 6.29492 6.81788C6.50619 6.7404 6.71952 6.66705 6.93388 6.59732C7.12707 6.53482 7.32129 6.47542 7.51757 6.41911C7.6307 6.38605 7.74485 6.35455 7.85901 6.32459C8.10746 6.25847 8.35747 6.197 8.61005 6.14121C8.67049 6.12778 8.73144 6.11435 8.79239 6.10144C9.07391 6.04204 9.358 5.98884 9.64417 5.94286C9.67361 5.93821 9.70305 5.93357 9.73249 5.92892C9.9324 5.89741 10.1333 5.87055 10.3353 5.84575L10.3415 4.88344C10.1623 4.9041 9.98353 4.92683 9.80584 4.95266C9.75006 4.96041 9.69479 4.96867 9.63952 4.97745C9.36575 5.01981 9.09354 5.06785 8.82339 5.12157C8.78051 5.12983 8.73712 5.13861 8.69425 5.14791C8.39931 5.20834 8.10694 5.27549 7.81768 5.34936C7.7965 5.35452 7.77533 5.36021 7.75363 5.36589C7.43906 5.4475 7.12707 5.53635 6.81869 5.63294C6.80113 5.63811 6.78357 5.6443 6.76549 5.64947C6.47055 5.74296 6.17922 5.84317 5.89099 5.9501C5.79491 5.98574 5.69935 6.02189 5.60431 6.05909C5.3915 6.14173 5.18075 6.22799 4.97155 6.31787C4.66421 6.45011 4.36152 6.5906 4.06244 6.73782C4.04746 6.74505 4.033 6.75228 4.01802 6.75951C3.72979 6.90259 3.44517 7.05291 3.16521 7.20994C3.17709 7.28845 3.18949 7.36748 3.20188 7.44599C3.24372 7.7022 3.2897 7.95685 3.34032 8.20944C3.35581 8.28744 3.37183 8.36492 3.38836 8.4424C3.44156 8.69292 3.49889 8.94241 3.56088 9.18983C3.57844 9.25956 3.596 9.3293 3.61408 9.39851C3.67968 9.65058 3.75045 9.90059 3.82483 10.149C3.84291 10.209 3.86099 10.2684 3.87958 10.3283C3.95862 10.5835 4.04281 10.836 4.13114 11.0871C4.1487 11.1372 4.16678 11.1873 4.18486 11.2374C4.27784 11.4946 4.37546 11.7493 4.47825 12.0019C4.4953 12.0442 4.51235 12.0861 4.52991 12.1279C4.63632 12.3857 4.74789 12.6413 4.86463 12.8939C4.88115 12.9301 4.89768 12.9657 4.91473 13.0019C5.03457 13.2581 5.15905 13.5117 5.2887 13.7622C5.30523 13.7943 5.32176 13.8263 5.33881 13.8583C5.47104 14.1109 5.60793 14.3599 5.74997 14.6063C5.76754 14.6367 5.7851 14.6667 5.80266 14.6967C5.94574 14.9425 6.09399 15.1853 6.24689 15.425C6.26651 15.4555 6.28563 15.4859 6.30577 15.5164C6.45867 15.754 6.61673 15.988 6.77892 16.2189C6.80165 16.2514 6.82489 16.284 6.84814 16.3165C7.00981 16.5433 7.17511 16.7669 7.34557 16.987C7.37346 17.0237 7.40135 17.0593 7.43028 17.0955C7.59815 17.3103 7.77016 17.5216 7.94578 17.7298C7.98039 17.7711 8.01552 17.8119 8.05064 17.8527C8.22368 18.0547 8.40086 18.253 8.58164 18.4483C8.62452 18.4948 8.66739 18.5402 8.71026 18.5862C8.88847 18.7747 9.06977 18.9602 9.25418 19.1425C9.30532 19.1931 9.35697 19.2438 9.40914 19.2933C9.59303 19.471 9.7795 19.6451 9.96959 19.8156C10.0285 19.8688 10.0879 19.9215 10.1468 19.9736C10.341 20.1446 10.5383 20.312 10.7387 20.4752C10.8002 20.5258 10.8617 20.5754 10.9236 20.6245C11.1452 20.8016 11.3704 20.9742 11.5988 21.142C11.6458 21.1766 11.6922 21.2107 11.7398 21.2448C12.0197 21.4473 12.3049 21.6431 12.5946 21.8316C12.8849 21.6431 13.1695 21.4473 13.4495 21.2448C13.5001 21.2087 13.5497 21.172 13.5998 21.1353C13.8256 20.9695 14.0471 20.7991 14.2656 20.6245C14.3312 20.5718 14.3974 20.5191 14.4624 20.4654C14.6587 20.3047 14.8524 20.1405 15.0425 19.9731C15.1061 19.9173 15.1696 19.861 15.2321 19.8042C15.4175 19.6368 15.6004 19.4664 15.7801 19.2928C15.8359 19.2386 15.8917 19.1844 15.9475 19.1296C16.1278 18.9514 16.3055 18.7696 16.479 18.5852C16.526 18.5351 16.573 18.485 16.6195 18.4343C16.7962 18.2437 16.9692 18.0495 17.1386 17.8522C17.1774 17.8067 17.2161 17.7613 17.2549 17.7158C17.4269 17.5123 17.5947 17.3052 17.7595 17.0955C17.7915 17.0547 17.8236 17.0139 17.8551 16.9725C18.0214 16.7571 18.1836 16.5381 18.3411 16.316C18.3675 16.2783 18.3943 16.2411 18.4207 16.2034C18.5793 15.9772 18.7337 15.7478 18.8835 15.5154C18.9062 15.4803 18.9295 15.4446 18.9517 15.409C19.1015 15.1745 19.2461 14.9363 19.3861 14.6956C19.4068 14.6605 19.4274 14.6254 19.4476 14.5897C19.586 14.3485 19.7203 14.1042 19.85 13.8568C19.8696 13.8196 19.8887 13.7824 19.9078 13.7452C20.0349 13.4998 20.1568 13.2514 20.274 13.0003C20.2931 12.959 20.3123 12.9182 20.3314 12.8769C20.445 12.629 20.5545 12.3789 20.6583 12.1264C20.678 12.0788 20.6976 12.0318 20.7162 11.9843C20.8164 11.7369 20.9125 11.4874 21.0034 11.2353C21.0235 11.1801 21.0432 11.1243 21.0628 11.069C21.1491 10.8236 21.2312 10.5757 21.3087 10.3262C21.3288 10.2611 21.3484 10.1966 21.3681 10.1315C21.4409 9.88819 21.5096 9.64335 21.5742 9.39696C21.5938 9.32207 21.6129 9.24717 21.6315 9.17227C21.6919 8.93001 21.7482 8.68621 21.7999 8.44033C21.8175 8.35769 21.8345 8.27504 21.851 8.19188C21.9006 7.94394 21.9456 7.69445 21.9858 7.44393C21.9993 7.36025 22.0127 7.27657 22.0251 7.19237C22.0664 6.91809 22.1021 6.64277 22.1325 6.36488C22.1398 6.30134 22.1465 6.23781 22.1527 6.17427C22.1873 5.83129 22.2136 5.48624 22.2317 5.13861C22.2498 4.79046 22.2596 4.43973 22.2606 4.08745C22.2606 4.06318 22.2606 4.03942 22.2606 4.01565C22.2606 3.68249 22.2529 3.35138 22.2379 3.02183C21.9538 2.89166 21.6666 2.76718 21.3763 2.64837C21.3371 2.63236 21.2978 2.61635 21.258 2.60034C21.0018 2.49703 20.7436 2.39837 20.4827 2.30384C20.4119 2.27802 20.3412 2.25322 20.2704 2.22843C20.04 2.14733 19.8076 2.07037 19.5741 1.99702C19.4755 1.96603 19.3768 1.93555 19.2776 1.90559C19.07 1.84309 18.8613 1.78369 18.6511 1.72687C18.5281 1.69381 18.4047 1.66127 18.2807 1.63027C18.0932 1.58275 17.9047 1.53781 17.7151 1.49546C17.5715 1.46292 17.4274 1.43192 17.2822 1.40248C17.1113 1.36736 16.9393 1.3343 16.7672 1.3033C16.6066 1.27386 16.4449 1.24649 16.2827 1.22066C16.1252 1.19535 15.9671 1.1721 15.8085 1.14989C15.6345 1.12562 15.4594 1.1034 15.2843 1.08378C15.137 1.06673 14.9888 1.05123 14.8406 1.03677C14.6567 1.01921 14.4728 1.00371 14.2879 0.990799C14.1468 0.980468 14.0058 0.971687 13.8643 0.964455C13.6752 0.954124 13.4852 0.946376 13.2946 0.941211C13.1572 0.937078 13.0192 0.934496 12.8808 0.932946C12.7904 0.931913 12.6995 0.931396 12.6081 0.931396C12.5068 0.931396 12.4061 0.931913 12.3054 0.933463C12.1669 0.935012 12.029 0.938111 11.8916 0.942244C11.7015 0.947926 11.5115 0.95619 11.3224 0.966521C11.1804 0.974269 11.0388 0.98305 10.8978 0.993381C10.7134 1.00681 10.5295 1.02231 10.3467 1.04039C10.1974 1.05485 10.0491 1.07086 9.90089 1.08791C9.7263 1.10805 9.55222 1.13026 9.37867 1.15454C9.21957 1.17675 9.06048 1.20051 8.9019 1.22634C8.74074 1.25217 8.58009 1.27954 8.42048 1.30899C8.24693 1.3405 8.0744 1.37407 7.90239 1.40971C7.7588 1.43915 7.61572 1.47015 7.47315 1.50269C7.28255 1.54608 7.09246 1.59153 6.90341 1.63957C6.78099 1.67056 6.65908 1.70259 6.5377 1.73565C6.32643 1.79298 6.1162 1.8529 5.907 1.91592C5.80938 1.94536 5.71227 1.97532 5.61516 2.00632C5.37962 2.0807 5.14614 2.15869 4.91421 2.24031C4.845 2.26459 4.77578 2.28938 4.70708 2.31469C4.44468 2.40973 4.18434 2.50943 3.92659 2.61428C3.88888 2.62926 3.85117 2.64476 3.81398 2.66025C3.52162 2.78009 3.23236 2.90613 2.94671 3.03784C2.93225 3.36275 2.9245 3.6892 2.9245 4.0172C2.9245 4.04613 2.9245 4.07454 2.9245 4.10347C2.92605 4.45626 2.93587 4.80699 2.95446 5.15514C2.64144 5.31475 2.33307 5.48211 2.02986 5.6567C1.72097 5.83439 1.41724 6.01983 1.11816 6.21198C1.14657 6.51622 1.18118 6.81891 1.22147 7.11954C1.22819 7.17068 1.23542 7.22233 1.24265 7.27347C1.27984 7.53897 1.32168 7.80292 1.36817 8.06532C1.38263 8.149 1.39813 8.23268 1.41362 8.31636C1.45701 8.54777 1.50402 8.77763 1.55412 9.00646C1.5784 9.11803 1.60371 9.22909 1.63005 9.33963C1.67758 9.54108 1.72768 9.7415 1.77985 9.94088C1.81549 10.0752 1.85217 10.2084 1.88987 10.3422C1.93946 10.5184 1.99163 10.6935 2.04535 10.8681C2.09236 11.0204 2.14091 11.1723 2.19102 11.3231C2.24267 11.4781 2.29536 11.6325 2.35011 11.786C2.409 11.9518 2.46995 12.1171 2.53297 12.2808C2.58565 12.4192 2.63989 12.5566 2.69516 12.6935C2.76593 12.8686 2.83876 13.0422 2.91366 13.2152C2.96789 13.3407 3.02316 13.4652 3.07998 13.5892C3.16159 13.7695 3.24579 13.9482 3.33205 14.1254C3.38836 14.2416 3.44569 14.3573 3.50406 14.4725C3.59549 14.6533 3.6895 14.8325 3.78609 15.0107C3.84549 15.1213 3.90644 15.2313 3.96791 15.3403C4.06761 15.5185 4.1704 15.6951 4.27474 15.8702C4.3393 15.9782 4.40491 16.0856 4.47102 16.1926C4.57743 16.3646 4.6859 16.5345 4.79696 16.7034C4.86824 16.8119 4.94056 16.9204 5.01391 17.0278C5.12393 17.19 5.23653 17.3506 5.35121 17.5103C5.43179 17.6223 5.5134 17.7339 5.59605 17.8445C5.70762 17.9942 5.82074 18.1425 5.93593 18.2892C6.02839 18.4075 6.12188 18.5242 6.21641 18.6404C6.32643 18.7747 6.43697 18.908 6.55009 19.0397C6.65753 19.1658 6.76704 19.2913 6.87706 19.4147C6.98089 19.5315 7.08626 19.6472 7.19267 19.7618C7.3187 19.8977 7.44629 20.0325 7.57594 20.1653C7.67047 20.2624 7.76603 20.359 7.86262 20.4545C8.01138 20.6017 8.1617 20.7474 8.31408 20.8905C8.39517 20.9669 8.47627 21.0418 8.5584 21.1172C8.73351 21.2774 8.9112 21.4344 9.09147 21.5894C9.15397 21.6431 9.21647 21.6963 9.27949 21.749C9.48559 21.9225 9.6953 22.092 9.90708 22.2583C9.94634 22.2888 9.98508 22.3192 10.0243 22.3492C10.2666 22.5367 10.5125 22.719 10.7625 22.8967C11.0554 23.1054 11.3539 23.3074 11.6566 23.5021C11.9629 23.6994 12.2744 23.8895 12.5905 24.0719C12.9066 23.889 13.2181 23.6989 13.5244 23.5021C13.8276 23.3074 14.1257 23.1054 14.4191 22.8967C14.6758 22.7144 14.9284 22.5269 15.1768 22.3342C15.2094 22.3089 15.2419 22.2836 15.2744 22.2583C15.4935 22.0868 15.7089 21.9117 15.9212 21.733C15.978 21.6854 16.0343 21.6374 16.0906 21.5888C16.2765 21.4287 16.4604 21.266 16.6412 21.1002C16.7171 21.031 16.7926 20.9607 16.8675 20.89C17.026 20.7412 17.182 20.5904 17.336 20.437C17.4264 20.3471 17.5162 20.2562 17.6056 20.1647C17.7404 20.0263 17.8737 19.8858 18.0049 19.7438C18.1061 19.6348 18.2058 19.5248 18.3045 19.4142C18.4202 19.2846 18.5343 19.1534 18.6464 19.0211C18.7539 18.8951 18.8597 18.768 18.9646 18.6394C19.0643 18.5175 19.1624 18.3941 19.2596 18.2701C19.3701 18.1291 19.4786 17.987 19.5855 17.8434C19.6728 17.7267 19.7585 17.6089 19.8432 17.4906C19.9533 17.3372 20.0612 17.1828 20.1671 17.0268C20.2446 16.9131 20.321 16.799 20.3959 16.6838C20.5023 16.5211 20.6072 16.3573 20.7095 16.1915C20.7797 16.0784 20.8489 15.9648 20.9171 15.8501C21.0179 15.6812 21.1165 15.5107 21.2126 15.3392C21.2777 15.2235 21.3417 15.1073 21.4047 14.9906C21.4977 14.8186 21.5881 14.6455 21.6764 14.4714C21.7379 14.3501 21.7989 14.2282 21.8577 14.1052C21.9409 13.9342 22.022 13.7617 22.1005 13.5882C22.1599 13.458 22.2183 13.3268 22.2751 13.1946C22.3469 13.0282 22.4172 12.8609 22.4853 12.692C22.5437 12.5489 22.6 12.4048 22.6553 12.2601C22.7157 12.1026 22.7741 11.944 22.8309 11.7844C22.8877 11.6248 22.943 11.4636 22.9967 11.3025C23.0448 11.1578 23.0912 11.0127 23.1362 10.8665C23.192 10.6857 23.2462 10.5044 23.2973 10.3216C23.333 10.1945 23.3681 10.0674 23.4017 9.93985C23.4559 9.73426 23.5076 9.52713 23.5561 9.31948C23.5809 9.21514 23.6042 9.11028 23.6274 9.00543C23.6791 8.7704 23.7271 8.53434 23.7715 8.29673C23.786 8.21977 23.7999 8.14229 23.8134 8.06481C23.8609 7.79621 23.9038 7.52606 23.942 7.25436C23.9482 7.2089 23.9544 7.16396 23.9606 7.11851C24.0019 6.81168 24.037 6.50331 24.066 6.19235C23.7669 6.0002 23.4626 5.8158 23.1537 5.63862L23.1579 5.63811ZM3.88475 3.66492C3.95552 3.63445 4.02628 3.60449 4.09705 3.57556C4.3455 3.47225 4.59706 3.37308 4.85016 3.27855C4.90182 3.25892 4.95347 3.24033 5.00512 3.22173C5.27476 3.12307 5.54697 3.0301 5.82177 2.94177C5.85277 2.93195 5.88427 2.92162 5.91527 2.91181C6.2066 2.81987 6.50102 2.73309 6.79752 2.65302C6.8094 2.64992 6.82128 2.64631 6.83316 2.64373C7.13947 2.56108 7.44836 2.48515 7.76035 2.41593C7.76603 2.4149 7.77171 2.41335 7.77688 2.41232C8.08112 2.34465 8.38794 2.28318 8.69683 2.22843C8.71698 2.22481 8.73712 2.2212 8.75727 2.2181C9.05066 2.16644 9.34561 2.12099 9.64262 2.08121C9.67413 2.07708 9.70615 2.07295 9.73766 2.06882C10.0223 2.03214 10.3084 2.00063 10.5961 1.97481C10.6364 1.97119 10.6762 1.96757 10.7165 1.96448C10.9954 1.94123 11.2754 1.92264 11.5574 1.90921C11.6029 1.90714 11.6478 1.90507 11.6933 1.90352C11.9691 1.89216 12.2465 1.88596 12.5249 1.88545C12.5533 1.88545 12.5817 1.88545 12.6107 1.88545C12.6292 1.88545 12.6478 1.88545 12.6664 1.88545C12.9449 1.88596 13.2217 1.89216 13.4976 1.90249C13.543 1.90404 13.5885 1.90611 13.6339 1.90817C13.9154 1.92109 14.1954 1.93917 14.4738 1.96241C14.5141 1.96551 14.5549 1.96912 14.5952 1.97274C14.8824 1.99805 15.1686 2.02904 15.4527 2.06572C15.4847 2.06985 15.5172 2.07398 15.5492 2.07811C15.8457 2.11737 16.1407 2.16231 16.433 2.21293C16.4537 2.21655 16.4749 2.22016 16.4955 2.22378C16.8039 2.27802 17.1102 2.33897 17.414 2.4056C17.4202 2.40715 17.4264 2.40818 17.4326 2.40973C17.744 2.47895 18.0534 2.55436 18.3597 2.63649C18.3706 2.63959 18.3814 2.64218 18.3928 2.64527C18.6903 2.72534 18.9858 2.8116 19.2781 2.90354C19.3086 2.91284 19.3386 2.92266 19.3691 2.93247C19.6444 3.02028 19.9176 3.11326 20.1883 3.21192C20.2394 3.23 20.29 3.24911 20.3412 3.2677C20.5953 3.36223 20.8469 3.46089 21.0964 3.5642C21.1666 3.59313 21.2369 3.62257 21.3066 3.65253C21.3087 3.7734 21.3097 3.89427 21.3097 4.01565C21.3097 4.2419 21.3061 4.46659 21.2983 4.69077C21.2932 4.84573 21.2865 4.99966 21.2782 5.15359C21.2679 5.34161 21.2549 5.52808 21.2394 5.71455C21.2116 6.04927 21.1759 6.38192 21.132 6.71199C21.1372 6.71819 21.1429 6.72439 21.1485 6.73007C21.1429 6.72697 21.1367 6.72439 21.131 6.72129C21.0866 7.05342 21.0344 7.38349 20.9739 7.71046C20.9646 7.76005 20.9553 7.80964 20.9461 7.85923C20.8934 8.13506 20.8345 8.40934 20.7704 8.68156C20.7539 8.75129 20.7374 8.82102 20.7198 8.89024C20.6583 9.13921 20.5922 9.38663 20.522 9.63199C20.5003 9.70895 20.4776 9.7854 20.4543 9.86185C20.3835 10.0974 20.3086 10.3309 20.2301 10.5623C20.2038 10.6403 20.1769 10.7172 20.149 10.7947C20.0685 11.022 19.9843 11.2472 19.8959 11.4709C19.866 11.5468 19.8355 11.6227 19.8045 11.6981C19.7141 11.9197 19.6196 12.1398 19.5209 12.3573C19.4879 12.4311 19.4543 12.5039 19.4197 12.5773C19.319 12.7942 19.2141 13.0086 19.1056 13.2209C19.0695 13.2922 19.0328 13.363 18.9956 13.4337C18.8845 13.645 18.7699 13.8547 18.6516 14.0613C18.6123 14.1305 18.5726 14.1992 18.5323 14.2679C18.4114 14.474 18.2869 14.6781 18.1588 14.8795C18.1159 14.9472 18.0731 15.0138 18.0292 15.081C17.899 15.2814 17.7647 15.4787 17.6273 15.674C17.5808 15.7401 17.5343 15.8057 17.4868 15.8713C17.3468 16.0655 17.2037 16.2566 17.057 16.4457C17.0069 16.5102 16.9563 16.5748 16.9052 16.6388C16.7554 16.8274 16.602 17.0128 16.446 17.1957C16.3928 17.2582 16.339 17.3202 16.2848 17.3816C16.1226 17.5666 15.9578 17.7479 15.7894 17.9266C15.7352 17.9844 15.6804 18.0418 15.6252 18.0986C15.447 18.2835 15.2657 18.4648 15.0802 18.6425C15.0291 18.6916 14.978 18.7406 14.9263 18.7887C14.7212 18.9819 14.512 19.1709 14.2992 19.3553C14.2625 19.3868 14.2259 19.4189 14.1887 19.4504C13.9351 19.6668 13.6763 19.8776 13.4118 20.0816C13.4061 20.0857 13.401 20.0898 13.3953 20.0945C13.1339 20.2959 12.8674 20.4917 12.5957 20.6803C12.3266 20.4928 12.0621 20.299 11.8023 20.0991C11.7945 20.0935 11.7868 20.0873 11.7795 20.0816C11.5151 19.8776 11.2563 19.6668 11.0027 19.4504C10.9686 19.4214 10.9345 19.392 10.9009 19.3631C10.685 19.1761 10.4727 18.985 10.265 18.7887C10.217 18.7432 10.169 18.6978 10.1209 18.6518C9.9324 18.471 9.74747 18.2866 9.56617 18.0986C9.51452 18.0449 9.46286 17.9911 9.41172 17.9369C9.23972 17.7551 9.07132 17.5697 8.90655 17.3811C8.85593 17.3233 8.80531 17.2649 8.7552 17.2065C8.59559 17.0201 8.43908 16.8305 8.28618 16.6383C8.23866 16.5784 8.19114 16.518 8.14413 16.4575C7.99434 16.2649 7.84764 16.0691 7.70508 15.8708C7.66065 15.8093 7.61675 15.7478 7.57336 15.6858C7.43286 15.4864 7.29598 15.2845 7.16271 15.0804C7.1219 15.0179 7.08161 14.9554 7.04132 14.8919C6.91064 14.6863 6.78305 14.4782 6.6596 14.2674C6.62189 14.2034 6.5847 14.1388 6.54803 14.0742C6.42716 13.863 6.30939 13.6491 6.19626 13.4327C6.16166 13.3666 6.12705 13.3005 6.09296 13.2338C5.9819 13.0169 5.87498 12.7979 5.77219 12.5763C5.74016 12.5081 5.70865 12.4394 5.67766 12.3702C5.57693 12.1481 5.48034 11.9234 5.38788 11.6971C5.35895 11.6263 5.33003 11.5551 5.30213 11.4838C5.21174 11.2555 5.12548 11.0256 5.04335 10.7932C5.01752 10.7209 4.99221 10.648 4.96742 10.5752C4.88684 10.3386 4.80987 10.1005 4.73807 9.8603C4.71638 9.7885 4.6952 9.71722 4.67454 9.6449C4.60222 9.3949 4.53456 9.14283 4.47257 8.88869C4.45656 8.82412 4.44106 8.75904 4.42557 8.69395C4.35997 8.4176 4.30056 8.13867 4.24684 7.85768C4.23806 7.81274 4.2298 7.76831 4.22153 7.72338C4.34447 7.65984 4.46844 7.59786 4.59344 7.53742C4.76545 7.45374 4.93952 7.37265 5.11463 7.29413C5.16577 7.59527 5.22465 7.89435 5.28974 8.19033C5.29439 8.21254 5.29955 8.23475 5.3042 8.25644C5.37548 8.57412 5.454 8.88869 5.54078 9.20016C5.54542 9.21669 5.55007 9.23374 5.55472 9.25027C5.63737 9.54469 5.72673 9.83602 5.82281 10.1243C5.8352 10.1614 5.8476 10.1981 5.86 10.2348C5.95039 10.5018 6.04698 10.7658 6.14874 11.0277C6.16734 11.0752 6.18593 11.1227 6.20453 11.1697C6.30371 11.4192 6.40856 11.6661 6.51807 11.9104C6.54131 11.9631 6.56507 12.0153 6.58935 12.0675C6.69834 12.3046 6.81198 12.5396 6.93027 12.7715C6.95764 12.8258 6.98554 12.8795 7.01343 12.9332C7.13275 13.162 7.2562 13.3883 7.38431 13.6114C7.41478 13.6646 7.44577 13.7183 7.47728 13.771C7.60745 13.9936 7.74227 14.2137 7.88122 14.4306C7.91376 14.4818 7.94682 14.5324 7.97988 14.583C8.12296 14.8015 8.27017 15.0174 8.42152 15.2297C8.45509 15.2762 8.48815 15.3227 8.52173 15.3687C8.67927 15.5861 8.84198 15.8 9.00882 16.0102C9.03981 16.05 9.07184 16.0893 9.10335 16.1285C9.28001 16.348 9.46183 16.5634 9.64778 16.7752C9.67309 16.8041 9.6984 16.8326 9.72423 16.8615C9.92723 17.0898 10.1354 17.3129 10.3492 17.5314C10.3606 17.5433 10.372 17.5547 10.3839 17.5666C10.6111 17.7974 10.8441 18.0232 11.0822 18.2427C11.1003 18.2592 11.1179 18.2758 11.1359 18.2918C11.3591 18.4958 11.5874 18.6947 11.8203 18.8879C11.9025 18.9566 11.9856 19.0242 12.0693 19.0914C12.2429 19.2308 12.419 19.3672 12.5972 19.501C12.777 19.3667 12.9542 19.2288 13.1287 19.0883C13.2109 19.0222 13.293 18.955 13.3741 18.8879C13.6091 18.6926 13.8395 18.4917 14.0647 18.2856C14.0807 18.2711 14.0962 18.2567 14.1117 18.2422C14.3504 18.0227 14.5833 17.7969 14.8101 17.566C14.824 17.5521 14.838 17.5376 14.8519 17.5232C15.0627 17.3073 15.2688 17.0867 15.4692 16.861C15.4976 16.8295 15.5255 16.7979 15.5534 16.7659C15.7368 16.5572 15.9155 16.3449 16.0895 16.128C16.1236 16.0856 16.1582 16.0428 16.1918 15.9994C16.3556 15.7922 16.5152 15.582 16.6707 15.3676C16.7073 15.3181 16.743 15.268 16.7786 15.2178C16.9274 15.0086 17.072 14.7969 17.213 14.582C17.2487 14.5278 17.2838 14.473 17.3189 14.4182C17.4553 14.2049 17.588 13.989 17.7161 13.77C17.7497 13.7132 17.7828 13.6558 17.8153 13.5985C17.9408 13.379 18.0622 13.1569 18.1795 12.9316C18.2094 12.8738 18.2394 12.8159 18.2688 12.7576C18.385 12.5293 18.4966 12.2984 18.6035 12.0654C18.6294 12.0091 18.6547 11.9528 18.68 11.896C18.7874 11.6558 18.8902 11.4125 18.9879 11.1677C19.0085 11.1165 19.0287 11.0649 19.0488 11.0132C19.149 10.756 19.2435 10.4956 19.3329 10.2327C19.3468 10.1914 19.3608 10.1506 19.3742 10.1093C19.4687 9.82518 19.5566 9.53798 19.6377 9.2482C19.6433 9.22702 19.6495 9.20636 19.6552 9.18518C19.7415 8.87371 19.82 8.55914 19.8913 8.24146C19.8954 8.2239 19.899 8.20582 19.9032 8.18826C19.9693 7.88764 20.0282 7.58494 20.0803 7.27915C20.0974 7.18049 20.1134 7.08183 20.1284 6.98266C20.1635 6.7559 20.1945 6.5281 20.2213 6.29928C20.2601 5.96972 20.2911 5.63759 20.3128 5.30287C20.3128 5.29822 20.3133 5.29357 20.3138 5.28892C20.3355 4.95834 20.3489 4.62517 20.3531 4.29045C20.2735 4.25894 20.1935 4.22847 20.1134 4.19799C19.8778 4.10863 19.6402 4.02392 19.4006 3.94334C19.3195 3.91596 19.2384 3.8891 19.1568 3.86276C18.9202 3.78631 18.6821 3.71348 18.4419 3.6453C18.3665 3.6236 18.291 3.60242 18.2151 3.58176C17.9718 3.51564 17.727 3.45314 17.4801 3.39581C17.4124 3.37979 17.3442 3.3643 17.2766 3.3488C17.0245 3.2925 16.7709 3.24033 16.5157 3.19281C16.4563 3.18144 16.3964 3.17111 16.3365 3.16026C16.0761 3.11429 15.8137 3.07297 15.5503 3.0363C15.4976 3.02906 15.4449 3.02183 15.3917 3.01512C15.1241 2.97999 14.8555 2.95003 14.5849 2.92524C14.5373 2.92059 14.4898 2.91646 14.4423 2.91284C14.1701 2.8896 13.8963 2.871 13.621 2.85861C13.5771 2.85654 13.5327 2.85447 13.4883 2.85292C13.2135 2.84156 12.9376 2.83588 12.6597 2.83536C12.6432 2.83536 12.6267 2.83536 12.6101 2.83536C12.5838 2.83536 12.5569 2.83536 12.5306 2.83536C12.2532 2.83639 11.9769 2.84259 11.7021 2.85447C11.6576 2.85602 11.6132 2.85809 11.5693 2.86016C11.2945 2.87359 11.0207 2.89166 10.7485 2.91542C10.701 2.91956 10.653 2.92369 10.6054 2.92834C10.3353 2.95365 10.0667 2.98361 9.79964 3.01925C9.74644 3.02596 9.69324 3.0332 9.64055 3.04094C9.37712 3.07762 9.11575 3.11946 8.85541 3.16595C8.79549 3.17679 8.73506 3.18764 8.67514 3.19901C8.41997 3.24653 8.16686 3.2987 7.91531 3.35603C7.84713 3.37153 7.77894 3.38703 7.71076 3.40304C7.46437 3.46141 7.21953 3.52339 6.97676 3.59054C6.90031 3.6112 6.82438 3.6329 6.74896 3.65459C6.50929 3.72329 6.27116 3.79613 6.0351 3.87257C5.95349 3.89892 5.87239 3.92629 5.7913 3.95367C5.55162 4.03477 5.31402 4.12 5.07796 4.20987C4.99789 4.23983 4.91835 4.27082 4.8388 4.30182C4.5795 4.40358 4.32278 4.5105 4.06812 4.62259C4.00975 4.64842 3.95138 4.67424 3.89353 4.70059C3.88578 4.47228 3.88165 4.24242 3.88165 4.01204C3.88165 3.8953 3.88268 3.77805 3.88475 3.66182V3.66492Z" fill="white"/>
</g>
<defs>
<clipPath id="clip0_145_50">
<rect width="78.3219" height="25" fill="white"/>
</clipPath>
</defs>
</svg>
